<?xml version="1.0" encoding="UTF-8"?>
<svg id="Layer_2" data-name="Layer 2" xmlns="http://www.w3.org/2000/svg" viewBox="0 0 255.43 296.17">
  <defs>
    <style>
      .cls-1 {
        fill: #fff;
      }

      .cls-2 {
        fill: none;
        stroke: #89c343;
        stroke-miterlimit: 10;
        stroke-width: 2.97px;
      }

      .cls-3 {
        fill: #89c343;
      }

      .cls-4 {
        fill: #010101;
      }
    </style>
  </defs>
  <g id="Layer_1-2" data-name="Layer 1">
    <g>
      <path class="cls-2" d="M209.68,105.58c0,57.49-46.61,104.1-104.1,104.1S1.48,163.07,1.48,105.58,48.09,1.48,105.58,1.48c38.5,0,72.12,20.9,90.13,51.98"/>
      <polygon class="cls-3" points="255.43 104.55 248.05 100.63 248.05 103.06 208.2 103.06 208.2 106.03 248.05 106.03 248.05 108.47 255.43 104.55"/>
    </g>
    <g>
      <path class="cls-3" d="M103.15,60.92c.93,0,1.87-.04,2.8,.01,3.09,.17,5.46,2.63,5.51,5.7,.02,.93,.06,1.86-.01,2.78-.08,1.01,.25,1.54,1.29,1.8,2.14,.52,4.12,1.47,6.05,2.51,.66,.35,1.12,.45,1.67-.21,.65-.77,1.44-1.41,2.17-2.12,2.31-2.25,5.71-2.4,8.13-.25,1.36,1.21,2.66,2.5,3.87,3.86,2.26,2.52,2.12,5.74-.26,8.16-.65,.66-1.3,1.34-1.99,1.96-.61,.54-.73,1.05-.31,1.79,1.12,1.93,1.98,3.98,2.56,6.13,.23,.86,.7,1.18,1.57,1.12,.81-.06,1.62-.01,2.43,0,3.58,.01,5.9,1.9,6.3,5.41,.24,2.12,.28,4.28-.09,6.4-.48,2.83-2.82,4.75-5.72,4.78-1.05,.01-2.11,.03-3.17,0-.67-.02-1.06,.21-1.24,.88-.63,2.31-1.57,4.5-2.74,6.58-.31,.55-.26,.96,.2,1.39,.71,.66,1.39,1.36,2.07,2.05,2.54,2.57,2.64,5.76,.24,8.43-1.03,1.14-2.1,2.25-3.22,3.3-2.9,2.69-6.28,2.6-9.05-.18-.17-.17-.34-.35-.5-.53-1.06-1.12-2.16-1.18-3.31-.19-.81,.7-1.79,.77-2.39,.11-.72-.79-.67-1.64,.04-2.39,.89-.94,1.82-1.84,2.8-2.68,.84-.72,1.72-.58,2.5,.18,1.13,1.11,2.24,2.23,3.37,3.33,1.28,1.25,2.69,1.37,3.99,.2,1.17-1.05,2.3-2.17,3.35-3.34,1.26-1.42,1.18-2.57-.15-3.93-1.08-1.1-2.17-2.18-3.27-3.26-.85-.83-.97-1.7-.34-2.72,1.72-2.77,3-5.72,3.72-8.9,.26-1.14,.97-1.61,2.09-1.6,1.58,0,3.17,0,4.75,0,1.72-.01,2.77-.91,2.86-2.61,.09-1.57,.09-3.15,0-4.72-.1-1.73-1.21-2.7-2.94-2.71-1.58-.01-3.17-.01-4.75,0-1.13,0-1.79-.5-2.04-1.65-.67-3.06-1.92-5.9-3.54-8.58-.87-1.44-.79-1.95,.44-3.17,1.06-1.05,2.13-2.11,3.17-3.18,1.16-1.2,1.25-2.39,.12-3.65-1.1-1.24-2.28-2.41-3.52-3.51-1.25-1.12-2.69-1-3.89,.18-1.1,1.08-2.2,2.15-3.27,3.26-.86,.88-1.71,1.04-2.81,.34-2.65-1.71-5.54-2.84-8.6-3.59-1.61-.39-1.91-.81-1.92-2.45-.01-1.53,.02-3.07-.01-4.6-.02-1.52-.96-2.53-2.47-2.59-1.7-.06-3.41-.07-5.11,0-1.59,.07-2.5,1.09-2.52,2.67-.02,1.57-.03,3.15,0,4.72,.02,1.19-.47,1.9-1.65,2.18-3.23,.75-6.25,2.01-9.07,3.74-.94,.57-1.75,.45-2.52-.33-1.08-1.1-2.18-2.17-3.28-3.24-1.46-1.4-2.79-1.41-4.24-.02-.99,.95-1.97,1.93-2.93,2.91-1.49,1.53-1.49,2.67,0,4.16,1.03,1.03,2.08,2.04,3.1,3.09,1.04,1.06,1.12,1.66,.38,2.9-1.66,2.8-2.99,5.73-3.67,8.92-.22,1.04-.86,1.5-1.9,1.5-1.58,0-3.17,0-4.75,0-1.85,0-2.97,1.02-3.05,2.86-.07,1.49-.07,2.99,0,4.48,.08,1.77,1.12,2.69,2.9,2.71,1.54,.01,3.08,.01,4.63,0,1.23,0,1.94,.51,2.23,1.76,.69,3.01,1.89,5.83,3.51,8.47,.9,1.47,.84,1.98-.35,3.19-1.03,1.03-2.07,2.05-3.1,3.09-1.28,1.3-1.42,2.37-.28,3.74,1.11,1.33,2.33,2.59,3.71,3.65,1.25,.96,2.44,.88,3.61-.21,1.15-1.08,2.24-2.22,3.38-3.32,1.08-1.04,1.87-1.05,2.94-.04,.85,.81,1.7,1.62,2.51,2.47,.74,.76,.78,1.77,.1,2.36-.75,.65-1.54,.61-2.31-.02-1.24-1.01-2.42-.94-3.56,.19-3.42,3.4-6.58,3.39-9.98-.02-.91-.92-1.88-1.79-2.74-2.76-2.38-2.69-2.23-5.9,.33-8.43,.83-.82,2.05-1.49,2.34-2.56,.29-1.06-.86-2-1.25-3.05-.52-1.4-1.12-2.78-1.55-4.2-.25-.82-.64-1.1-1.46-1.04-.89,.06-1.79,.02-2.68,.01-3.43,0-5.63-1.81-6.08-5.18-.29-2.12-.31-4.28,.03-6.39,.5-3.13,2.75-4.98,5.91-5.01,1.02,0,2.03-.03,3.04,0,.69,.03,1.02-.26,1.21-.91,.66-2.25,1.5-4.44,2.7-6.47,.37-.64,.23-1.11-.3-1.59-.72-.65-1.4-1.35-2.08-2.04-2.36-2.39-2.48-5.69-.23-8.16,1.2-1.32,2.47-2.58,3.78-3.77,2.44-2.21,5.89-2.09,8.22,.2,.72,.71,1.45,1.41,2.15,2.14,.47,.49,.94,.55,1.52,.24,2.11-1.13,4.3-2.09,6.63-2.72,.68-.18,.87-.6,.85-1.25-.03-1.05-.02-2.1,0-3.15,.05-3.17,2.4-5.59,5.58-5.74,.93-.04,1.87,0,2.8,0h0Z"/>
      <path class="cls-3" d="M103.06,118.74c-8.63,0-15.58-6.9-15.58-15.45,0-8.65,7-15.52,15.8-15.51,8.48,.01,15.47,7,15.47,15.47,0,8.58-7,15.49-15.69,15.48Zm.04-3.24c6.84,0,12.35-5.44,12.36-12.19,0-6.82-5.53-12.29-12.4-12.27-6.82,.02-12.31,5.5-12.29,12.26,.02,6.79,5.5,12.21,12.34,12.2h0Z"/>
      <path class="cls-3" d="M103.41,144.17c-3.37,0-6.74,0-10.1,0-2.5,0-3.71-1.24-3.69-3.75,0-1.01-.01-2.02,.02-3.03,.03-.94,.54-1.54,1.5-1.58,.94-.04,1.56,.47,1.66,1.41,.09,.88,.09,1.77,.09,2.66,0,.7,.3,1.03,1.02,1.02,6.45,0,12.9,0,19.36,0,.76,0,.99-.37,.97-1.05-.02-.85-.02-1.7,.02-2.54,.04-.89,.53-1.44,1.43-1.51,.9-.07,1.54,.39,1.66,1.26,.24,1.64,.33,3.31-.15,4.92-.41,1.39-1.64,2.16-3.31,2.17-3.49,.02-6.98,0-10.47,0h0Z"/>
      <path class="cls-3" d="M103.23,146.91c2.76,0,5.51,0,8.27,0,1.45,0,2.14,.51,2.15,1.55,.01,1.05-.72,1.68-2.07,1.69-5.63,.02-11.27,.02-16.9,0-1.36,0-2.1-.63-2.09-1.66,0-1.02,.74-1.57,2.14-1.58,2.84,0,5.67,0,8.51,0h0Z"/>
      <path class="cls-3" d="M103.11,156.03c-1.87,0-3.73,.01-5.6,0-1.21-.01-1.91-.57-1.97-1.52-.06-.99,.66-1.69,1.93-1.7,3.78-.04,7.55-.04,11.32,0,1.24,0,1.95,.72,1.9,1.73-.05,.93-.76,1.49-1.98,1.5-1.87,.02-3.73,0-5.6,0h0Z"/>
      <path class="cls-3" d="M101.39,125.48c.04-.84,.02-1.57,.13-2.28,.13-.89,.61-1.49,1.61-1.47,.96,.03,1.49,.54,1.59,1.48,.16,1.52,.16,3.05,0,4.57-.09,.91-.58,1.53-1.54,1.55-1.02,.02-1.55-.58-1.63-1.56-.07-.8-.1-1.6-.15-2.29h0Z"/>
      <path class="cls-3" d="M101.37,81.11c.06-.88,.07-1.69,.17-2.48,.11-.89,.71-1.38,1.57-1.4,.89-.03,1.45,.51,1.57,1.38,.22,1.64,.22,3.3-.02,4.94-.12,.84-.69,1.24-1.53,1.26-.85,.01-1.42-.42-1.55-1.24-.14-.83-.15-1.68-.21-2.45h0Z"/>
      <path class="cls-3" d="M125.54,104.88c-.77,0-1.54,.05-2.3-.01-.98-.07-1.61-.64-1.6-1.63,.01-.93,.61-1.53,1.54-1.56,1.57-.06,3.15-.07,4.73,.02,.95,.05,1.41,.72,1.38,1.66-.03,.9-.56,1.43-1.43,1.5-.76,.06-1.54,.01-2.3,.01h0s0,0,0,0Z"/>
      <path class="cls-3" d="M85.91,84.41c.12,.04,.44,.06,.64,.23,1.33,1.11,2.58,2.32,3.68,3.66,.52,.63,.36,1.4-.22,1.97-.55,.54-1.28,.66-1.89,.22-1.45-1.04-2.71-2.31-3.77-3.72-.76-1,.15-2.38,1.56-2.36h0Z"/>
      <path class="cls-3" d="M80.68,104.89c-.73,0-1.46,.04-2.18-.01-.92-.07-1.5-.56-1.53-1.53-.03-1.02,.53-1.63,1.51-1.67,1.53-.07,3.07-.06,4.6,0,.93,.04,1.5,.66,1.51,1.58,0,.92-.56,1.51-1.49,1.59-.8,.07-1.61,.02-2.42,.02v.02h0Z"/>
      <path class="cls-3" d="M88.71,115.87c1.39-.04,2.27,1.28,1.54,2.33-.98,1.43-2.35,2.54-3.67,3.67-.55,.47-1.33,.38-1.91-.13-.52-.47-.82-1.13-.41-1.74,1.06-1.58,2.44-2.88,3.96-4.02,.15-.11,.38-.1,.48-.12h0Z"/>
      <path class="cls-3" d="M117.39,115.86c1.03,.03,4.74,3.7,4.72,4.71-.01,.6-.27,1.11-.83,1.38-.63,.31-1.32,.3-1.83-.18-1.17-1.11-2.31-2.26-3.4-3.44-.45-.48-.42-1.12-.07-1.69,.32-.52,.79-.8,1.41-.78h0Z"/>
      <path class="cls-3" d="M120.33,84.41c.79-.01,1.26,.26,1.57,.79,.35,.59,.31,1.23-.12,1.7-1.13,1.21-2.3,2.39-3.53,3.5-.62,.56-1.4,.42-1.99-.13-.6-.56-.77-1.32-.25-1.97,1.09-1.35,2.34-2.57,3.69-3.67,.2-.16,.52-.18,.64-.22h0Z"/>
      <path class="cls-3" d="M102.97,138.25c-.79-.12-1.37-.57-1.41-1.53-.04-.96,.59-1.63,1.52-1.66,.93-.02,1.59,.63,1.59,1.57,0,.92-.67,1.61-1.7,1.62h0Z"/>
    </g>
    <rect class="cls-3" x="46.68" y="184.15" width="112.86" height="33.7" rx="16.85" ry="16.85"/>
    <path class="cls-1" d="M78.28,205.53c-.94-.27-1.7-.63-2.27-1.07l1-2.22c.55,.4,1.2,.72,1.95,.97s1.51,.36,2.26,.36c.84,0,1.46-.12,1.86-.37,.4-.25,.6-.58,.6-.99,0-.3-.12-.56-.36-.76-.24-.2-.54-.36-.91-.48-.37-.12-.87-.26-1.5-.4-.97-.23-1.77-.46-2.39-.69-.62-.23-1.15-.6-1.6-1.11s-.67-1.19-.67-2.04c0-.74,.2-1.41,.6-2.02,.4-.6,1.01-1.08,1.81-1.43,.81-.35,1.8-.53,2.96-.53,.81,0,1.61,.1,2.39,.29,.78,.19,1.46,.47,2.04,.84l-.91,2.24c-1.18-.67-2.36-1-3.54-1-.83,0-1.44,.13-1.83,.4-.4,.27-.59,.62-.59,1.06s.23,.76,.68,.98c.46,.21,1.15,.42,2.09,.63,.97,.23,1.77,.46,2.39,.69,.62,.23,1.15,.6,1.6,1.09,.44,.5,.67,1.17,.67,2.02,0,.73-.2,1.39-.61,2-.41,.6-1.02,1.08-1.83,1.43-.81,.35-1.81,.53-2.97,.53-1.01,0-1.98-.14-2.93-.41Z"/>
    <path class="cls-1" d="M94.77,205.25c-.28,.21-.62,.36-1.03,.47-.41,.1-.84,.15-1.29,.15-1.17,0-2.07-.3-2.71-.89-.64-.59-.96-1.47-.96-2.63v-4.03h-1.51v-2.19h1.51v-2.39h2.84v2.39h2.44v2.19h-2.44v3.99c0,.41,.11,.73,.32,.96,.21,.23,.51,.34,.9,.34,.45,0,.83-.12,1.15-.37l.77,2.01Z"/>
    <path class="cls-1" d="M105.62,201.62h-7.42c.13,.61,.45,1.09,.95,1.44s1.12,.53,1.86,.53c.51,0,.96-.08,1.36-.23,.4-.15,.76-.39,1.1-.72l1.51,1.64c-.92,1.06-2.27,1.59-4.05,1.59-1.11,0-2.08-.21-2.94-.65-.85-.43-1.51-1.03-1.97-1.8s-.69-1.63-.69-2.61,.23-1.83,.68-2.6c.46-.77,1.08-1.37,1.88-1.8,.8-.43,1.69-.65,2.67-.65s1.83,.21,2.61,.62,1.39,1.01,1.83,1.78c.44,.77,.67,1.67,.67,2.69,0,.04-.02,.29-.05,.77Zm-6.66-3.15c-.44,.36-.71,.86-.8,1.5h4.83c-.1-.62-.36-1.12-.8-1.49-.44-.37-.97-.56-1.6-.56s-1.19,.18-1.62,.55Z"/>
    <path class="cls-1" d="M115.86,196.4c.75,.42,1.33,1.01,1.76,1.77,.43,.76,.64,1.64,.64,2.65s-.21,1.89-.64,2.65c-.43,.76-1.01,1.35-1.76,1.77-.75,.42-1.58,.63-2.49,.63-1.25,0-2.24-.39-2.95-1.18v4.58h-2.85v-13.35h2.72v1.13c.71-.85,1.73-1.28,3.08-1.28,.91,0,1.74,.21,2.49,.63Zm-1.19,6.4c.47-.49,.7-1.15,.7-1.98s-.23-1.49-.7-1.98c-.47-.49-1.07-.74-1.8-.74s-1.33,.25-1.8,.74c-.47,.49-.7,1.15-.7,1.98s.23,1.49,.7,1.98c.47,.49,1.07,.74,1.8,.74s1.33-.25,1.8-.74Z"/>
    <path class="cls-1" d="M129.64,192.96v12.77h-2.95v-10.4h-2.55v-2.37h5.51Z"/>
    <path class="cls-4" d="M18.17,289.72v-19.8h13.29v2.01h-11.13v6.72h8.7v2.04h-8.7v7.02h11.55v2.01h-13.71Zm17.95,0v-15h1.89l.18,3.45-.33-.3c.42-1.2,1.11-2.07,2.07-2.61,.96-.56,2.02-.84,3.18-.84,1.02,0,1.94,.21,2.76,.63,.84,.42,1.51,1.05,2.01,1.89,.5,.82,.75,1.87,.75,3.15v9.63h-2.16v-8.88c0-1.66-.35-2.83-1.05-3.51s-1.57-1.02-2.61-1.02c-.72,0-1.43,.18-2.13,.54-.7,.36-1.28,.93-1.74,1.71-.44,.78-.66,1.8-.66,3.06v8.1h-2.16Zm29.9-17.76l.48,1.92h-.21c-.94,0-1.67,.21-2.19,.63-.5,.42-.75,1.07-.75,1.95l-1.29-.69c0-.78,.17-1.45,.51-2.01,.34-.58,.79-1.02,1.35-1.32,.58-.32,1.23-.48,1.95-.48h.15Zm-4.5,15.96c1.4,0,2.49,.33,3.27,.99,.78,.64,1.17,1.49,1.17,2.55,0,.96-.31,1.79-.93,2.49-.6,.7-1.43,1.24-2.49,1.62-1.04,.4-2.22,.6-3.54,.6-2.24,0-3.93-.4-5.07-1.2-1.12-.78-1.68-1.74-1.68-2.88,0-.8,.27-1.52,.81-2.16,.54-.62,1.4-.98,2.58-1.08l-.15,.42c-.66-.18-1.22-.49-1.68-.93-.46-.44-.69-1.06-.69-1.86s.28-1.44,.84-2.04c.58-.6,1.44-.96,2.58-1.08l1.56,.72h-.39c-.92,.08-1.6,.32-2.04,.72-.42,.38-.63,.83-.63,1.35,0,.58,.21,1.02,.63,1.32,.42,.3,.99,.45,1.71,.45h4.14Zm-2.49,6.48c1.1,0,2.02-.13,2.76-.39,.74-.24,1.3-.57,1.68-.99,.38-.4,.57-.84,.57-1.32,0-.6-.24-1.08-.72-1.44-.46-.34-1.23-.51-2.31-.51h-4.35c-.68,0-1.26,.18-1.74,.54-.48,.38-.72,.88-.72,1.5,0,.78,.43,1.41,1.29,1.89s2.04,.72,3.54,.72Zm-.21-19.98c1.16,0,2.18,.22,3.06,.66,.88,.42,1.57,1.01,2.07,1.77,.5,.74,.75,1.6,.75,2.58s-.26,1.85-.78,2.61c-.5,.76-1.19,1.36-2.07,1.8-.88,.42-1.89,.63-3.03,.63-1.88,0-3.34-.47-4.38-1.41-1.02-.94-1.53-2.15-1.53-3.63,0-.98,.25-1.84,.75-2.58,.5-.76,1.19-1.35,2.07-1.77,.9-.44,1.93-.66,3.09-.66Zm0,1.74c-1.06,0-1.95,.3-2.67,.9-.7,.6-1.05,1.39-1.05,2.37s.36,1.78,1.08,2.4c.72,.6,1.6,.9,2.64,.9s1.91-.3,2.61-.9c.72-.62,1.08-1.42,1.08-2.4s-.35-1.77-1.05-2.37c-.7-.6-1.58-.9-2.64-.9Zm18.89,3.81c0-1.14-.3-2.03-.9-2.67-.6-.66-1.45-.99-2.55-.99-1,0-1.85,.24-2.55,.72-.7,.46-1.22,1.2-1.56,2.22l-1.77-1.08c.4-1.14,1.11-2.05,2.13-2.73,1.04-.68,2.31-1.02,3.81-1.02,1.06,0,2,.19,2.82,.57,.84,.36,1.5,.92,1.98,1.68,.5,.76,.75,1.72,.75,2.88v7.32c0,.82,.38,1.23,1.14,1.23,.16,0,.34,0,.54-.03,.2-.04,.37-.09,.51-.15l-.12,1.71c-.16,.08-.37,.15-.63,.21-.24,.06-.52,.09-.84,.09-.52,0-1-.1-1.44-.3-.42-.22-.76-.55-1.02-.99-.24-.46-.36-1.03-.36-1.71v-.42l.54,.06c-.22,.78-.61,1.43-1.17,1.95-.54,.5-1.17,.88-1.89,1.14-.7,.24-1.41,.36-2.13,.36-1.3,0-2.41-.33-3.33-.99-.92-.68-1.38-1.69-1.38-3.03,0-1.08,.34-1.98,1.02-2.7,.7-.74,1.72-1.25,3.06-1.53l5.73-1.2v1.8l-4.71,1.02c-.98,.2-1.71,.49-2.19,.87-.48,.38-.72,.92-.72,1.62s.24,1.23,.72,1.65c.5,.4,1.21,.6,2.13,.6,.54,0,1.07-.07,1.59-.21,.52-.16,.99-.4,1.41-.72s.75-.72,.99-1.2c.26-.5,.39-1.09,.39-1.77v-4.26Zm19.33-8.01l.48,1.92h-.21c-.94,0-1.67,.21-2.19,.63-.5,.42-.75,1.07-.75,1.95l-1.29-.69c0-.78,.17-1.45,.51-2.01,.34-.58,.79-1.02,1.35-1.32,.58-.32,1.23-.48,1.95-.48h.15Zm-4.5,15.96c1.4,0,2.49,.33,3.27,.99,.78,.64,1.17,1.49,1.17,2.55,0,.96-.31,1.79-.93,2.49-.6,.7-1.43,1.24-2.49,1.62-1.04,.4-2.22,.6-3.54,.6-2.24,0-3.93-.4-5.07-1.2-1.12-.78-1.68-1.74-1.68-2.88,0-.8,.27-1.52,.81-2.16,.54-.62,1.4-.98,2.58-1.08l-.15,.42c-.66-.18-1.22-.49-1.68-.93-.46-.44-.69-1.06-.69-1.86s.28-1.44,.84-2.04c.58-.6,1.44-.96,2.58-1.08l1.56,.72h-.39c-.92,.08-1.6,.32-2.04,.72-.42,.38-.63,.83-.63,1.35,0,.58,.21,1.02,.63,1.32s.99,.45,1.71,.45h4.14Zm-2.49,6.48c1.1,0,2.02-.13,2.76-.39,.74-.24,1.3-.57,1.68-.99,.38-.4,.57-.84,.57-1.32,0-.6-.24-1.08-.72-1.44-.46-.34-1.23-.51-2.31-.51h-4.35c-.68,0-1.26,.18-1.74,.54-.48,.38-.72,.88-.72,1.5,0,.78,.43,1.41,1.29,1.89s2.04,.72,3.54,.72Zm-.21-19.98c1.16,0,2.18,.22,3.06,.66,.88,.42,1.57,1.01,2.07,1.77,.5,.74,.75,1.6,.75,2.58s-.26,1.85-.78,2.61c-.5,.76-1.19,1.36-2.07,1.8-.88,.42-1.89,.63-3.03,.63-1.88,0-3.34-.47-4.38-1.41-1.02-.94-1.53-2.15-1.53-3.63,0-.98,.25-1.84,.75-2.58,.5-.76,1.19-1.35,2.07-1.77,.9-.44,1.93-.66,3.09-.66Zm0,1.74c-1.06,0-1.95,.3-2.67,.9-.7,.6-1.05,1.39-1.05,2.37s.36,1.78,1.08,2.4c.72,.6,1.6,.9,2.64,.9s1.91-.3,2.61-.9c.72-.62,1.08-1.42,1.08-2.4s-.35-1.77-1.05-2.37c-.7-.6-1.58-.9-2.64-.9Zm16.37,13.86c-1.36,0-2.57-.31-3.63-.93-1.04-.62-1.86-1.51-2.46-2.67-.6-1.18-.9-2.58-.9-4.2s.29-3.01,.87-4.17c.6-1.18,1.41-2.08,2.43-2.7,1.04-.62,2.22-.93,3.54-.93s2.48,.3,3.42,.9c.94,.6,1.66,1.42,2.16,2.46s.75,2.22,.75,3.54c0,.32,0,.6-.03,.84-.02,.24-.04,.45-.06,.63h-11.67v-1.92h10.71l-1.11,.24c0-1.02-.18-1.88-.54-2.58-.34-.72-.83-1.27-1.47-1.65-.62-.38-1.35-.57-2.19-.57-.96,0-1.8,.24-2.52,.72-.7,.48-1.24,1.16-1.62,2.04-.38,.88-.57,1.93-.57,3.15s.2,2.27,.6,3.15c.4,.88,.96,1.56,1.68,2.04,.74,.48,1.6,.72,2.58,.72,1.04,0,1.9-.22,2.58-.66,.7-.46,1.25-1.06,1.65-1.8l1.71,.99c-.36,.68-.83,1.28-1.41,1.8-.56,.5-1.22,.89-1.98,1.17-.76,.26-1.6,.39-2.52,.39Zm10.67-.3v-15h1.89l.15,2.55c.5-.96,1.19-1.67,2.07-2.13,.88-.48,1.81-.72,2.79-.72,1.08,0,2.08,.26,3,.78,.92,.5,1.6,1.28,2.04,2.34,.3-.7,.73-1.28,1.29-1.74,.58-.46,1.22-.8,1.92-1.02,.7-.24,1.38-.36,2.04-.36,.96,0,1.86,.2,2.7,.6,.84,.4,1.52,1.02,2.04,1.86,.54,.84,.81,1.91,.81,3.21v9.63h-2.16v-9.42c0-1.4-.35-2.41-1.05-3.03-.7-.64-1.56-.96-2.58-.96-.8,0-1.54,.2-2.22,.6-.68,.4-1.23,.98-1.65,1.74-.42,.76-.63,1.67-.63,2.73v8.34h-2.16v-9.42c0-1.4-.35-2.41-1.05-3.03-.7-.64-1.56-.96-2.58-.96-.68,0-1.37,.19-2.07,.57-.7,.36-1.28,.93-1.74,1.71-.46,.78-.69,1.78-.69,3v8.13h-2.16Zm34.04,.3c-1.36,0-2.57-.31-3.63-.93-1.04-.62-1.86-1.51-2.46-2.67-.6-1.18-.9-2.58-.9-4.2s.29-3.01,.87-4.17c.6-1.18,1.41-2.08,2.43-2.7,1.04-.62,2.22-.93,3.54-.93s2.48,.3,3.42,.9,1.66,1.42,2.16,2.46,.75,2.22,.75,3.54c0,.32-.01,.6-.03,.84-.02,.24-.04,.45-.06,.63h-11.67v-1.92h10.71l-1.11,.24c0-1.02-.18-1.88-.54-2.58-.34-.72-.83-1.27-1.47-1.65-.62-.38-1.35-.57-2.19-.57-.96,0-1.8,.24-2.52,.72-.7,.48-1.24,1.16-1.62,2.04-.38,.88-.57,1.93-.57,3.15s.2,2.27,.6,3.15c.4,.88,.96,1.56,1.68,2.04,.74,.48,1.6,.72,2.58,.72,1.04,0,1.9-.22,2.58-.66,.7-.46,1.25-1.06,1.65-1.8l1.71,.99c-.36,.68-.83,1.28-1.41,1.8-.56,.5-1.22,.89-1.98,1.17-.76,.26-1.6,.39-2.52,.39Zm10.67-.3v-15h1.89l.18,3.45-.33-.3c.42-1.2,1.11-2.07,2.07-2.61,.96-.56,2.02-.84,3.18-.84,1.02,0,1.94,.21,2.76,.63,.84,.42,1.51,1.05,2.01,1.89,.5,.82,.75,1.87,.75,3.15v9.63h-2.16v-8.88c0-1.66-.35-2.83-1.05-3.51-.7-.68-1.57-1.02-2.61-1.02-.72,0-1.43,.18-2.13,.54s-1.28,.93-1.74,1.71c-.44,.78-.66,1.8-.66,3.06v8.1h-2.16Zm20.73-19.23v15.12c0,.8,.2,1.4,.6,1.8,.4,.4,.93,.6,1.59,.6,.56,0,1.03-.1,1.41-.3,.4-.2,.76-.47,1.08-.81l.72,1.8c-.44,.42-.95,.75-1.53,.99-.58,.22-1.24,.33-1.98,.33-1.12,0-2.08-.31-2.88-.93-.78-.62-1.17-1.65-1.17-3.09v-14.91l2.16-.6Zm5.16,4.23v1.86h-10.14v-1.86h10.14Z"/>
  </g>
</svg>