<?xml version="1.0" encoding="UTF-8"?>
<svg id="Layer_2" data-name="Layer 2" xmlns="http://www.w3.org/2000/svg" viewBox="0 0 255.43 293.1">
  <defs>
    <style>
      .cls-1 {
        fill: #fff;
      }

      .cls-2 {
        fill: none;
        stroke: #44b993;
        stroke-miterlimit: 10;
        stroke-width: 2.97px;
      }

      .cls-3 {
        fill: #44b993;
      }

      .cls-4 {
        fill: #010101;
      }
    </style>
  </defs>
  <g id="Layer_1-2" data-name="Layer 1">
    <g>
      <g>
        <path class="cls-2" d="M209.68,105.58c0,57.49-46.61,104.1-104.1,104.1S1.48,163.07,1.48,105.58"/>
        <path class="cls-2" d="M15.45,53.46C33.46,22.39,67.08,1.48,105.58,1.48s72.12,20.9,90.13,51.98"/>
      </g>
      <polygon class="cls-3" points="255.43 104.55 248.05 100.63 248.05 103.06 208.2 103.06 208.2 106.03 248.05 106.03 248.05 108.47 255.43 104.55"/>
    </g>
    <rect class="cls-3" x="49.15" y="184.15" width="112.86" height="33.7" rx="16.85" ry="16.85"/>
    <path class="cls-1" d="M78.73,205.53c-.94-.27-1.7-.63-2.27-1.07l1-2.22c.55,.4,1.2,.72,1.95,.97s1.51,.36,2.26,.36c.84,0,1.46-.12,1.86-.37,.4-.25,.6-.58,.6-.99,0-.3-.12-.56-.36-.76-.24-.2-.54-.36-.91-.48-.37-.12-.87-.26-1.5-.4-.97-.23-1.77-.46-2.39-.69-.62-.23-1.15-.6-1.6-1.11s-.67-1.19-.67-2.04c0-.74,.2-1.41,.6-2.02,.4-.6,1.01-1.08,1.81-1.43,.81-.35,1.8-.53,2.96-.53,.81,0,1.61,.1,2.39,.29,.78,.19,1.46,.47,2.04,.84l-.91,2.24c-1.18-.67-2.36-1-3.54-1-.83,0-1.44,.13-1.83,.4-.4,.27-.59,.62-.59,1.06s.23,.76,.68,.98c.46,.21,1.15,.42,2.09,.63,.97,.23,1.77,.46,2.39,.69,.62,.23,1.15,.6,1.6,1.09,.44,.5,.67,1.17,.67,2.02,0,.73-.2,1.39-.61,2-.41,.6-1.02,1.08-1.83,1.43-.81,.35-1.81,.53-2.97,.53-1.01,0-1.98-.14-2.93-.41Z"/>
    <path class="cls-1" d="M95.22,205.25c-.28,.21-.62,.36-1.03,.47-.41,.1-.84,.15-1.29,.15-1.17,0-2.07-.3-2.71-.89-.64-.59-.96-1.47-.96-2.63v-4.03h-1.51v-2.19h1.51v-2.39h2.84v2.39h2.44v2.19h-2.44v3.99c0,.41,.11,.73,.32,.96,.21,.23,.51,.34,.9,.34,.45,0,.83-.12,1.15-.37l.77,2.01Z"/>
    <path class="cls-1" d="M106.07,201.62h-7.42c.13,.61,.45,1.09,.95,1.44s1.12,.53,1.86,.53c.51,0,.96-.08,1.36-.23,.4-.15,.76-.39,1.1-.72l1.51,1.64c-.92,1.06-2.27,1.59-4.05,1.59-1.11,0-2.08-.21-2.94-.65-.85-.43-1.51-1.03-1.97-1.8s-.69-1.63-.69-2.61,.23-1.83,.68-2.6c.46-.77,1.08-1.37,1.88-1.8,.8-.43,1.69-.65,2.67-.65s1.83,.21,2.61,.62,1.39,1.01,1.83,1.78c.44,.77,.67,1.67,.67,2.69,0,.04-.02,.29-.05,.77Zm-6.66-3.15c-.44,.36-.71,.86-.8,1.5h4.83c-.1-.62-.36-1.12-.8-1.49-.44-.37-.97-.56-1.6-.56s-1.19,.18-1.62,.55Z"/>
    <path class="cls-1" d="M116.31,196.4c.75,.42,1.33,1.01,1.76,1.77,.43,.76,.64,1.64,.64,2.65s-.21,1.89-.64,2.65c-.43,.76-1.01,1.35-1.76,1.77-.75,.42-1.58,.63-2.49,.63-1.25,0-2.24-.39-2.95-1.18v4.58h-2.85v-13.35h2.72v1.13c.71-.85,1.73-1.28,3.08-1.28,.91,0,1.74,.21,2.49,.63Zm-1.19,6.4c.47-.49,.7-1.15,.7-1.98s-.23-1.49-.7-1.98c-.47-.49-1.07-.74-1.8-.74s-1.33,.25-1.8,.74c-.47,.49-.7,1.15-.7,1.98s.23,1.49,.7,1.98c.47,.49,1.07,.74,1.8,.74s1.33-.25,1.8-.74Z"/>
    <path class="cls-1" d="M134.71,203.32v2.41h-9.65v-1.92l4.92-4.65c.52-.5,.88-.93,1.06-1.29,.18-.36,.27-.71,.27-1.07,0-.51-.17-.9-.52-1.18-.35-.27-.85-.41-1.52-.41-.56,0-1.06,.11-1.51,.32-.45,.21-.83,.53-1.13,.96l-2.15-1.39c.5-.74,1.19-1.32,2.06-1.74,.88-.42,1.88-.63,3.01-.63,.95,0,1.78,.15,2.49,.46,.71,.31,1.26,.75,1.66,1.31,.4,.57,.59,1.23,.59,2,0,.69-.15,1.34-.44,1.95-.29,.61-.86,1.3-1.7,2.08l-2.94,2.77h5.49Z"/>
    <g>
      <path class="cls-3" d="M98.92,140.07h-28.23c-4.97,0-7.5-2.63-7.5-7.59v-3.02c0-.49,.1-1.27,.39-1.46,2.04-1.27,1.46-3.21,1.46-4.97v-37c0-3.41,.88-4.58,4.19-4.97,1.17-.19,1.27-.78,1.27-1.66v-14.02c0-3.21,1.27-4.48,4.38-4.48h55.59c3.31,0,4.48,1.17,4.48,4.58v13.24c0,1.46,.29,2.24,1.85,2.43,2.43,.29,3.51,1.75,3.51,4.19v20.25c0,1.17,.19,2.24,.78,3.31,2.92,5.45,3.31,11,1.07,16.75-.39,.88-.29,1.75-.19,2.73,.29,2.53,.58,5.26-.49,7.69-.39,.97-.29,1.66,.29,2.43,1.66,2.34,3.31,4.67,4.87,7.11,2.34,3.51,1.56,7.4-1.85,9.44-3.51,2.04-7.2,.78-9.05-3.02-1.56-3.21-3.21-6.43-4.58-9.64-.78-1.75-1.75-2.43-3.7-2.43-9.54,.19-19.08,.1-28.53,.1Zm3.8-66.21h-27.55c-1.56,0-2.04,.49-2.04,2.04v43.03c0,1.66,.49,2.24,2.14,2.24,8.86-.1,17.72-.1,26.58,0,1.75,0,2.14-.58,2.14-2.24,0-14.12,12.75-23.46,26.09-19.18,1.75,.58,1.85-.1,1.85-1.46,0-7.4-.1-14.8,0-22.2,0-1.75-.49-2.34-2.24-2.34-9.05,.1-18.01,.1-26.97,.1h0Zm-.19-2.92h24.83c5.26,0,4.48,.78,4.58-4.58q0-2.53-2.53-2.53h-51.6c-4.67,0-4.58,0-4.67,4.58,0,1.95,.49,2.53,2.43,2.53h26.97Zm5.84,60.17c-1.17-1.85-2.34-3.41-2.92-5.16-.49-1.66-1.46-2.04-3.12-2.04-9.64,.1-19.28,0-28.82,0-2.92,0-3.21-.29-3.21-3.21v-35.83c0-.49-.1-1.07-.78-1.17-.68-.1-1.36,.1-1.56,.78-.19,.49-.19,1.17-.19,1.66v38.65c0,1.75,.58,2.24,2.34,2.24,7.3-.1,14.51,0,21.81-.1,1.46,0,2.43,.39,2.43,2.14,0,1.07,.68,1.75,1.85,1.75,3.89,.29,7.79,.29,12.17,.29h0Zm8.28,6.13c-1.75-1.07-3.41-1.95-4.97-3.12-.39-.29-.78-.39-1.27-.39-4.67,.49-9.25,.1-13.92,.19-2.14,.1-3.7-.88-4.58-2.73-.39-.78-.88-1.17-1.75-1.17h-22.49c-.58,0-1.17-.1-1.56,.58-1.56,2.53,.58,6.52,3.51,6.62,3.6,.1,7.3,0,10.9,0h36.12Zm6.82-1.85c9.35,.1,17.04-7.4,17.23-16.55,.1-9.44-7.4-17.23-16.75-17.33-9.35-.1-17.04,7.5-17.14,16.84-.1,9.44,7.2,16.94,16.65,17.04h0Zm17.43,17.91c3.41,0,5.16-3.02,3.7-5.45-1.46-2.34-3.12-4.67-4.77-6.91-2.24-3.12-1.36-3.31-5.26-1.07-.97,.58-1.27,.97-.68,2.14,1.56,3.12,2.92,6.23,4.38,9.35,.68,1.27,1.75,1.95,2.63,1.95h0Zm-3.6-59.29h0v-8.37c0-.97-.39-1.75-1.56-1.75s-.97,.97-.97,1.66v15.09c0,.97,.29,1.75,1.07,2.24,.39,.19,.68,.78,1.17,.49,.49-.19,.29-.78,.39-1.17-.1-2.63-.1-5.45-.1-8.18h0Z"/>
      <path class="cls-3" d="M119.27,86.33c-.78-.1-1.17-.19-1.56-.29-.58-.1-1.07-.49-1.07-1.17,0-.78,.39-1.27,1.07-1.36,1.85-.29,3.7-.39,5.55,0,1.07,.19,1.27,1.17,1.17,2.14-.29,1.85,.88,3.89-.88,5.35-.68,.58-1.36,0-1.75-.78-.29-.58,.1-1.27-.58-1.95-2.92,2.63-5.84,5.26-8.76,7.89-.58,.49-.49,1.07-.39,1.75,.29,2.82-1.66,4.97-4.28,4.97s-4.67-2.04-4.48-4.77c.1-1.07-.19-1.85-1.07-2.43-.49-.39-1.07-.78-1.46-1.27-1.85-2.82-4.77-1.56-7.2-1.95-.29-.1-.78,.39-1.07,.68-2.73,2.53-5.45,4.97-8.18,7.5-.78,.78-1.17,1.46-.97,2.63,.39,2.53-1.75,4.87-4.19,4.97s-4.67-2.14-4.58-4.67c.1-2.53,2.43-4.58,4.97-4.19,1.27,.19,2.14-.1,3.02-.97,2.53-2.43,5.16-4.77,7.79-7.11,.78-.78,1.17-1.46,1.07-2.63-.29-2.73,1.66-4.77,4.19-4.87,2.63,0,4.58,1.95,4.48,4.67-.1,1.17,.19,1.95,1.07,2.63,.78,.58,1.66,1.27,2.34,2.04,.97,1.07,2.14,.97,3.51,1.17,3.21,.58,4.87-1.46,6.82-3.21,1.66-1.36,3.41-2.92,5.45-4.77h0Z"/>
      <path class="cls-3" d="M110.12,68.9h-14.7c-.58,0-1.17,0-1.75-.1-.68-.19-1.17-.58-1.07-1.36,0-.68,.49-1.07,1.07-1.17,.68-.1,1.36-.19,2.04-.19h28.43c1.17,0,3.02-.39,3.02,1.36,0,1.85-1.75,1.46-3.02,1.46-4.58,0-9.25,0-14.02,0h0Z"/>
      <path class="cls-3" d="M138.55,118.55c0,8.18-6.82,14.99-14.99,14.99-8.08-.1-14.9-7.01-14.99-15.09,0-8.28,6.82-14.99,15.19-14.99,8.37,.1,14.9,6.72,14.8,15.09Zm-16.26-5.65h0v-4.77c0-1.36-.29-1.85-1.75-1.46-4.67,1.27-8.28,5.26-8.96,10.32-.68,4.48,1.75,9.44,5.74,11.88,4.19,2.53,9.64,2.34,13.53-.49,.88-.68,1.07-1.27,.49-2.24-.78-1.46-1.56-3.12-2.34-4.58-.68-1.46-.19-2.34,1.27-2.63,1.17-.29,2.43-.29,3.6-.68,.58-.19,1.95,.1,1.66-.97-.19-.88-1.27-.19-1.85-.1-3.02,.78-6.04,1.56-9.05,2.34-1.56,.39-2.34-.19-2.34-1.75,0-1.56,0-3.21,0-4.87h0Zm3.89-6.43c-.97,0-1.07,.58-1.07,1.27v7.5c0,.88,.39,1.27,1.27,1.07,2.43-.68,4.87-1.36,7.4-1.95,.68-.19,.97-.39,.78-1.17-.58-2.63-5.84-6.72-8.37-6.72h0Z"/>
    </g>
    <path class="cls-4" d="M38.78,292.8h-2.3l-2.1-5.7h-8.8l-2.1,5.7h-2.3l7.5-19.8h2.6l7.5,19.8Zm-12.4-7.7h7.3l-3.6-10-3.7,10Zm20.8,8c-1.4,0-2.7-.3-3.8-.9-1.2-.6-2-1.5-2.6-2.6l1.8-1.3c.4,1,1,1.7,1.8,2.2s1.8,.8,3,.8c1,0,1.9-.2,2.5-.7,.6-.4,.9-1,.9-1.7,0-.5-.1-.9-.4-1.2-.3-.4-.8-.7-1.6-.8l-3.4-.8c-1.4-.3-2.4-.8-3-1.5s-.9-1.5-.9-2.5c0-.8,.2-1.5,.7-2.2s1.1-1.2,1.9-1.6c.8-.4,1.8-.6,2.9-.6,1.4,0,2.6,.3,3.5,.9,1,.6,1.7,1.4,2.2,2.5l-1.8,1.2c-.3-.9-.9-1.6-1.6-2-.7-.4-1.5-.6-2.3-.6-.7,0-1.3,.1-1.8,.3-.5,.2-.9,.5-1.2,.9s-.4,.8-.4,1.3,.2,.9,.5,1.3,.9,.7,1.7,.9l3.5,.8c1.3,.3,2.3,.8,2.8,1.4s.8,1.4,.8,2.3c0,1.4-.5,2.5-1.6,3.4-1,.4-2.4,.8-4.1,.8Zm15.1,0c-1.4,0-2.7-.3-3.8-.9-1.2-.6-2-1.5-2.6-2.6l1.8-1.3c.4,1,1,1.7,1.8,2.2s1.8,.8,3,.8c1,0,1.9-.2,2.5-.7,.6-.4,.9-1,.9-1.7,0-.5-.1-.9-.4-1.2-.3-.4-.8-.7-1.6-.8l-3.4-.8c-1.4-.3-2.4-.8-3-1.5s-.9-1.5-.9-2.5c0-.8,.2-1.5,.7-2.2s1.1-1.2,2-1.6c.8-.4,1.8-.6,2.9-.6,1.4,0,2.6,.3,3.5,.9,1,.6,1.7,1.4,2.2,2.5l-1.8,1.2c-.3-.9-.8-1.6-1.6-2-.7-.4-1.5-.6-2.3-.6-.7,0-1.3,.1-1.8,.3-.5,.2-.9,.5-1.2,.9s-.4,.8-.4,1.3,.1,.9,.4,1.3c.3,.4,.9,.7,1.7,.9l3.5,.8c1.3,.3,2.3,.8,2.8,1.4s.8,1.4,.8,2.3c0,1.4-.5,2.5-1.6,3.4-1.1,.4-2.4,.8-4.1,.8Zm16,0c-1.4,0-2.6-.3-3.6-.9s-1.9-1.5-2.5-2.7-.9-2.6-.9-4.2,.3-3,.9-4.2,1.4-2.1,2.4-2.7,2.2-.9,3.5-.9,2.5,.3,3.4,.9,1.7,1.4,2.2,2.5c.5,1,.8,2.2,.8,3.5v.8c0,.2,0,.5-.1,.6h-11.7v-1.9h10.7l-1.1,.2c0-1-.2-1.9-.5-2.6s-.8-1.3-1.5-1.6c-.6-.4-1.3-.6-2.2-.6-1,0-1.8,.2-2.5,.7s-1.2,1.2-1.6,2c-.4,.9-.6,1.9-.6,3.1s.2,2.3,.6,3.2c.4,.9,1,1.6,1.7,2,.7,.5,1.6,.7,2.6,.7s1.9-.2,2.6-.7,1.2-1.1,1.7-1.8l1.7,1c-.4,.7-.8,1.3-1.4,1.8s-1.2,.9-2,1.2c-.8,.4-1.7,.6-2.6,.6Zm15.7,0c-1.4,0-2.7-.3-3.8-.9-1.2-.6-2-1.5-2.6-2.6l1.8-1.3c.4,1,1,1.7,1.8,2.2s1.8,.8,3,.8c1,0,1.9-.2,2.5-.7,.6-.4,.9-1,.9-1.7,0-.5-.1-.9-.4-1.2-.3-.4-.8-.7-1.6-.8l-3.4-.8c-1.4-.3-2.4-.8-3-1.5s-.9-1.5-.9-2.5c0-.8,.2-1.5,.7-2.2s1.1-1.2,1.9-1.6,1.8-.6,2.9-.6c1.4,0,2.6,.3,3.5,.9,1,.6,1.7,1.4,2.2,2.5l-1.8,1.2c-.3-.9-.9-1.6-1.6-2s-1.5-.6-2.3-.6c-.7,0-1.3,.1-1.8,.3-.5,.2-.9,.5-1.2,.9-.3,.4-.4,.8-.4,1.3s.2,.9,.5,1.3,.9,.7,1.7,.9l3.5,.8c1.3,.3,2.3,.8,2.8,1.4s.8,1.4,.8,2.3c0,1.4-.5,2.5-1.6,3.4-1.1,.4-2.4,.8-4.1,.8Zm15.1,0c-1.4,0-2.7-.3-3.8-.9-1.2-.6-2-1.5-2.6-2.6l1.8-1.3c.4,1,1,1.7,1.8,2.2s1.8,.8,3,.8c1,0,1.9-.2,2.5-.7,.6-.4,.9-1,.9-1.7,0-.5-.1-.9-.4-1.2-.3-.4-.8-.7-1.6-.8l-3.4-.8c-1.4-.3-2.4-.8-3-1.5s-.9-1.5-.9-2.5c0-.8,.2-1.5,.7-2.2s1.1-1.2,2-1.6c.8-.4,1.8-.6,2.9-.6,1.4,0,2.6,.3,3.5,.9,1,.6,1.7,1.4,2.2,2.5l-1.8,1.2c-.3-.9-.8-1.6-1.6-2-.7-.4-1.5-.6-2.3-.6-.7,0-1.3,.1-1.8,.3-.5,.2-.9,.5-1.2,.9-.3,.4-.4,.8-.4,1.3s.2,.9,.4,1.3c.3,.4,.9,.7,1.7,.9l3.5,.8c1.3,.3,2.3,.8,2.8,1.4s.8,1.4,.8,2.3c0,1.4-.5,2.5-1.6,3.4-1.1,.4-2.4,.8-4.1,.8Zm10-.3v-15h1.9l.2,2.6c.5-1,1.2-1.7,2.1-2.1,.9-.5,1.8-.7,2.8-.7,1.1,0,2.1,.3,3,.8s1.6,1.3,2,2.3c.3-.7,.7-1.3,1.3-1.7,.6-.5,1.2-.8,1.9-1s1.4-.4,2-.4c1,0,1.9,.2,2.7,.6s1.5,1,2,1.9c.5,.8,.8,1.9,.8,3.2v9.6h-2.2v-9.5c0-1.4-.4-2.4-1.1-3-.7-.6-1.6-1-2.6-1-.8,0-1.5,.2-2.2,.6s-1.2,1-1.7,1.7c-.4,.8-.6,1.7-.6,2.7v8.3h-2.2v-9.3c0-1.4-.4-2.4-1.1-3s-1.6-1-2.6-1c-.7,0-1.4,.2-2.1,.6s-1.3,.9-1.7,1.7c-.5,.8-.7,1.8-.7,3v8.1s-1.9,0-1.9,0Zm34.1,.3c-1.4,0-2.6-.3-3.6-.9s-1.9-1.5-2.5-2.7-.9-2.6-.9-4.2,.3-3,.9-4.2c.6-1.2,1.4-2.1,2.4-2.7s2.2-.9,3.5-.9,2.5,.3,3.4,.9,1.7,1.4,2.2,2.5c.5,1,.8,2.2,.8,3.5v.8c0,.2,0,.5-.1,.6h-11.7v-1.9h10.7l-1.1,.2c0-1-.2-1.9-.5-2.6s-.8-1.3-1.5-1.6c-.6-.4-1.4-.6-2.2-.6-1,0-1.8,.2-2.5,.7s-1.2,1.2-1.6,2-.6,1.9-.6,3.1,.2,2.3,.6,3.2c.4,.9,1,1.6,1.7,2,.7,.5,1.6,.7,2.6,.7s1.9-.2,2.6-.7c.7-.5,1.2-1.1,1.7-1.8l1.7,1c-.4,.7-.8,1.3-1.4,1.8-.6,.5-1.2,.9-2,1.2-.9,.4-1.7,.6-2.6,.6Zm10.6-.3v-15h1.9l.2,3.5-.3-.3c.4-1.2,1.1-2.1,2.1-2.6,1-.6,2-.8,3.2-.8,1,0,1.9,.2,2.8,.6,.8,.4,1.5,1,2,1.9,.5,.8,.8,1.9,.8,3.2v9.6h-2.3v-8.9c0-1.7-.3-2.8-1-3.5s-1.6-1-2.6-1c-.7,0-1.4,.2-2.1,.5-.7,.4-1.3,.9-1.7,1.7-.4,.8-.7,1.8-.7,3.1v8.1h-2.3v-.1Zm20.8-19.3v15.1c0,.8,.2,1.4,.6,1.8,.4,.4,.9,.6,1.6,.6,.6,0,1-.1,1.4-.3,.4-.2,.8-.5,1.1-.8l.7,1.8c-.4,.4-.9,.8-1.5,1s-1.2,.3-2,.3c-1.1,0-2.1-.3-2.9-.9-.8-.6-1.2-1.7-1.2-3.1v-14.9l2.2-.6Zm5.1,4.3v1.9h-10.1v-1.9h10.1Z"/>
  </g>
</svg>