<?xml version="1.0" encoding="UTF-8"?>
<svg id="Layer_2" data-name="Layer 2" xmlns="http://www.w3.org/2000/svg" viewBox="0 0 255.42 294.43">
  <defs>
    <style>
      .cls-1 {
        fill: none;
        stroke: #129fc3;
        stroke-miterlimit: 10;
        stroke-width: 2.97px;
      }

      .cls-2 {
        fill: #fff;
      }

      .cls-3 {
        fill: #129fc3;
      }

      .cls-4 {
        fill: #010101;
      }
    </style>
  </defs>
  <g id="Layer_1-2" data-name="Layer 1">
    <path class="cls-3" d="M110.15,138.25c-6.61,0-13.21,.02-19.82-.02-1.03,0-2.55,.36-2.61-1.22-.07-1.73,1.53-1.53,2.65-1.53,12.62-.03,25.24-.02,37.86-.03,3.62,0,3.72-.1,3.72-3.7,0-10.5-.02-21,.03-31.51,0-1.34-.53-3.51,1.35-3.58,2.11-.08,1.37,2.14,1.38,3.41,.06,10.84,.04,21.68,.03,32.52,0,4.39-1.22,5.63-5.54,5.64-6.35,.01-12.7,0-19.06,0Z"/>
    <path class="cls-3" d="M89.07,90.59c2.24,0,4.42-.03,6.6,.01,1.44,.03,1.84-.93,2.16-2.04,1.96-6.84,1.92-6.02,8.67-6.05,4.23-.02,8.47-.02,12.7,.01,1.06,0,2.55-.2,2.59,1.31,.05,1.72-1.55,1.48-2.67,1.49-4.91,.04-9.82,.1-14.73-.02-1.93-.04-3.06,.52-3.39,2.49-.13,.74-.52,1.44-.67,2.18-.51,2.52-2.1,3.46-4.56,3.44-5.76-.04-11.51-.02-17.27,0-3.81,0-3.87,.08-3.9,3.79,0,1.1,0,2.2-.12,3.29-.09,.8-.51,1.5-1.46,1.43-.82-.06-1.14-.72-1.14-1.44-.02-2.2-.2-4.43,.11-6.59,.32-2.2,1.97-3.25,4.2-3.26,3.13-.02,6.26,0,9.4-.02,.72,0,1.21,.21,1.24-1.12,.12-4.65,5.84-7.75,10.12-5.7,.57,.27,1.01,.65,.93,1.35-.07,.56-.44,.96-.96,1.06-.65,.14-1.36,.25-2.01,.16-3.09-.47-5.08,.69-5.82,4.24Z"/>
    <path class="cls-3" d="M89.77,106.69c-4.15,0-8.3,.06-12.45-.02-1.96-.04-2.76,.73-2.73,2.69,.06,4.06,.02,8.13,0,12.2,0,.67-.03,1.36-.15,2.02-.12,.71-.48,1.31-1.31,1.3-.83,0-1.24-.58-1.24-1.33,0-5.5-.2-11.02,.15-16.5,.16-2.44,2.48-3.18,4.81-3.18,7.88,0,15.76-.1,23.63,.06,2.47,.05,3.61-.87,4.49-3.05,2.45-6.08,2.53-6.05,9.04-6.05,1.86,0,3.73,0,5.59,.07,.8,.03,1.6,.37,1.64,1.28,.05,1.1-.83,1.37-1.74,1.38-2.63,.03-5.25,.09-7.88,.01-1.57-.04-2.44,.56-3.11,2.01-3.64,7.92-1.54,7.07-11.13,7.1-2.54,.01-5.08,0-7.62,0h0Z"/>
    <path class="cls-3" d="M127.7,82.46c.58,.11,1.43,.19,2.23,.44,2.54,.8,3.27,2.76,1.74,4.91-.83,1.16-1.95,2.11-2.93,3.16-.52,.55-1.1,1.07-1.55,1.68-.74,1.02-1.87,2.33-.81,3.37,1.1,1.09,2.15-.41,2.94-1.11,2.58-2.31,5.03-4.69,8.21-6.29,2.16-1.09,2.82-3.72,4.21-5.62,.84-1.15,1.42-3.66,3.39-2.36,1.77,1.17-.36,2.47-.94,3.6-1.92,3.76-4.39,6.85-8.45,8.74-2.2,1.02-3.78,3.33-5.76,4.91-1.64,1.31-3.57,2.35-5.5,.62-1.86-1.67-1.54-3.8-.59-5.85,.91-1.98,2.62-3.3,4.09-4.81,.51-.53,1.35-1,1.07-1.87-.25-.78-1.13-.58-1.77-.69-1.07-.19-2.48-.16-2.3-1.71,.16-1.39,1.5-1.04,2.74-1.12h0Z"/>
    <path class="cls-3" d="M141.01,61.2c1.25-.01,2.01,.52,2.66,1.21,3.27,3.44,6.53,6.87,9.77,10.33,1.47,1.56,1.39,3.1-.06,4.71-4.26,4.73-5.14,4.77-9.54,.17-2.46-2.57-4.9-5.15-7.3-7.77-2.1-2.29-2.07-3.35,.22-5.55,1.32-1.26,2.43-2.88,4.25-3.1Zm.07,3.05c-1.12,.52-1.99,1.47-2.73,2.46-.65,.86,.33,1.36,.8,1.87,2.65,2.85,5.39,5.62,7.98,8.52,1.16,1.3,1.92,.87,2.84-.17,.86-.97,2.26-1.64,.65-3.24-2.76-2.74-5.37-5.64-8.04-8.46-.4-.42-.73-.95-1.49-1h0Z"/>
    <path class="cls-3" d="M90.4,127.99c-.09,1.33-.74,2.61-1.55,3.8-1.89,2.79-3.68,5.58-4.96,8.77-1.4,3.49-5.07,5.08-7.69,7.55-.46,.43-1.13,.34-1.61-.15-.58-.6-.43-1.26,0-1.84,1.02-1.38,2.43-2.34,3.77-3.36,1.86-1.43,3.26-3.1,3.86-5.46,.7-2.78,3.11-4.6,4.33-7.1,.41-.84,1.59-1.83,.58-2.68-1.04-.87-2.12,.2-2.82,.94-1.5,1.6-2.76,3.41-4.23,5.04-1,1.12-2.28,1.82-3.85,1.1-.81-.38-1.39-1.04-1.18-2.02,.19-.91,.88-1.2,1.74-.99,1.67,.4,2.21-.96,2.93-1.92,1.32-1.77,2.53-3.62,4.59-4.63,2.99-1.47,6.06-.05,6.11,2.96h0Z"/>
    <path class="cls-3" d="M118.57,132.02c-1.35,0-2.7,.05-4.05-.01-2.9-.13-3.93-1.31-3.92-4.4,.02-3.05,1.06-4.21,4.02-4.29,2.78-.07,5.57-.07,8.35,0,3.05,.08,4.09,1.31,4.04,4.53-.05,3-1.1,4.07-4.15,4.17-1.43,.04-2.87,0-4.3,0h0Zm.08-2.81h0c1.35,.01,2.7,0,4.05,.01,1.05,0,1.51-.51,1.51-1.56,0-1.08-.51-1.55-1.53-1.55-2.61-.01-5.23-.03-7.84,0-.9,0-1.38,.51-1.41,1.43-.03,1,.36,1.64,1.43,1.67,1.26,.03,2.53,0,3.79,0h0Z"/>
    <path class="cls-3" d="M92.24,98.45c-3.12,0-6.25,.04-9.37-.02-1.58-.03-2.65,.31-2.55,2.21,.05,.91-.28,1.79-1.38,1.72-.9-.05-1.12-.88-1.28-1.66-.65-3.22,.75-5.19,4.04-5.24,6.84-.09,13.68-.05,20.51,0,1.03,0,2.53-.1,2.56,1.4,.03,1.69-1.54,1.52-2.66,1.54-3.29,.06-6.58,.02-9.88,.02h0s0,.01,0,.01Z"/>
    <path class="cls-3" d="M136.97,71.42c-.16,1.25-.79,2.08-1.62,2.65-1.59,1.1-3.24,2.12-4.94,3.05-2.38,1.3-4.65,2.74-6.64,4.59-.67,.62-1.46,1.07-2.2,.26-.72-.78-.26-1.58,.35-2.24,1.45-1.56,3.25-2.67,5.02-3.82,2.6-1.69,5.68-2.65,7.78-5.11,.42-.49,1.04-.64,1.59-.25,.31,.22,.49,.63,.65,.86h0Z"/>
    <path class="cls-3" d="M118.74,116.34c-1.6,0-3.2,.02-4.8,0-.83-.01-1.55-.34-1.59-1.27-.04-.93,.7-1.38,1.49-1.39,3.28-.06,6.56-.05,9.84-.01,.8,.01,1.58,.42,1.6,1.31,.02,1.07-.83,1.37-1.75,1.38-1.6,.02-3.2,0-4.8,0h0s0,0,0,0Z"/>
    <path class="cls-3" d="M118.7,121.32c-1.6,0-3.2,.04-4.8-.01-.81-.03-1.55-.45-1.56-1.35-.01-.91,.69-1.33,1.54-1.33,3.28-.02,6.57-.03,9.85,0,.83,0,1.55,.38,1.55,1.31s-.73,1.33-1.54,1.36c-1.68,.06-3.36,.02-5.05,.02h0Z"/>
    <g>
      <path class="cls-1" d="M209.68,105.58c0,57.49-46.61,104.1-104.1,104.1S1.48,163.07,1.48,105.58"/>
      <path class="cls-1" d="M15.45,53.46C33.46,22.39,67.08,1.48,105.58,1.48s72.12,20.9,90.13,51.98"/>
      <polygon class="cls-3" points="255.42 104.55 248.03 100.63 248.03 103.06 208.18 103.06 208.18 106.03 248.03 106.03 248.03 108.47 255.42 104.55"/>
    </g>
    <rect class="cls-3" x="49.15" y="184.43" width="112.86" height="33.7" rx="16.85" ry="16.85"/>
    <path class="cls-2" d="M78.23,205.82c-.94-.27-1.7-.63-2.27-1.07l1-2.22c.55,.4,1.2,.72,1.95,.97s1.51,.36,2.26,.36c.84,0,1.46-.12,1.86-.37s.6-.58,.6-.99c0-.3-.12-.56-.36-.76-.24-.2-.54-.36-.91-.48-.37-.12-.87-.26-1.5-.4-.97-.23-1.77-.46-2.39-.69-.62-.23-1.15-.6-1.6-1.11-.44-.51-.67-1.19-.67-2.04,0-.74,.2-1.41,.6-2.02s1.01-1.08,1.81-1.43c.81-.35,1.8-.53,2.96-.53,.81,0,1.61,.1,2.39,.29s1.46,.47,2.04,.84l-.91,2.24c-1.18-.67-2.36-1-3.54-1-.83,0-1.44,.13-1.83,.4-.4,.27-.59,.62-.59,1.06s.23,.76,.68,.98c.46,.21,1.15,.42,2.09,.63,.97,.23,1.77,.46,2.39,.69,.62,.23,1.15,.6,1.6,1.09,.44,.5,.67,1.17,.67,2.02,0,.73-.2,1.39-.61,2-.41,.6-1.02,1.08-1.83,1.43-.81,.35-1.8,.53-2.97,.53-1.01,0-1.98-.14-2.93-.41Z"/>
    <path class="cls-2" d="M94.72,205.53c-.28,.21-.62,.36-1.03,.47-.41,.1-.84,.15-1.29,.15-1.17,0-2.07-.3-2.71-.89-.64-.59-.96-1.47-.96-2.63v-4.03h-1.51v-2.19h1.51v-2.39h2.84v2.39h2.44v2.19h-2.44v3.99c0,.41,.11,.73,.32,.96,.21,.23,.51,.34,.9,.34,.45,0,.83-.12,1.15-.37l.77,2.01Z"/>
    <path class="cls-2" d="M105.57,201.9h-7.42c.13,.61,.45,1.09,.95,1.44,.5,.35,1.12,.53,1.86,.53,.51,0,.96-.08,1.36-.23,.4-.15,.76-.39,1.1-.72l1.51,1.64c-.92,1.06-2.27,1.59-4.05,1.59-1.11,0-2.08-.21-2.94-.65-.85-.43-1.51-1.03-1.97-1.8s-.69-1.63-.69-2.61,.23-1.83,.68-2.6c.46-.77,1.08-1.37,1.88-1.8s1.69-.65,2.67-.65,1.83,.21,2.61,.62c.78,.41,1.39,1.01,1.83,1.78,.44,.77,.67,1.67,.67,2.69,0,.04-.02,.29-.05,.77Zm-6.66-3.15c-.44,.36-.71,.86-.8,1.5h4.83c-.1-.62-.37-1.12-.8-1.49s-.97-.56-1.6-.56-1.19,.18-1.62,.55Z"/>
    <path class="cls-2" d="M115.81,196.68c.75,.42,1.33,1.01,1.76,1.77,.42,.76,.64,1.64,.64,2.65s-.21,1.89-.64,2.65c-.43,.76-1.01,1.35-1.76,1.77-.75,.42-1.58,.63-2.49,.63-1.25,0-2.24-.39-2.95-1.18v4.58h-2.84v-13.35h2.72v1.13c.71-.85,1.73-1.28,3.08-1.28,.91,0,1.74,.21,2.49,.63Zm-1.18,6.4c.47-.49,.7-1.15,.7-1.98s-.23-1.49-.7-1.98c-.47-.49-1.07-.74-1.8-.74s-1.33,.25-1.8,.74c-.47,.49-.7,1.15-.7,1.98s.23,1.49,.7,1.98c.47,.49,1.07,.74,1.8,.74s1.33-.25,1.8-.74Z"/>
    <path class="cls-2" d="M133.04,198.49c.67,.33,1.2,.79,1.59,1.4,.39,.6,.58,1.3,.58,2.09,0,.85-.21,1.6-.64,2.24-.43,.64-1.01,1.14-1.74,1.49-.74,.35-1.55,.52-2.45,.52-1.79,0-3.19-.55-4.19-1.64-1.01-1.09-1.51-2.66-1.51-4.69,0-1.45,.27-2.69,.82-3.72,.55-1.03,1.31-1.82,2.29-2.35,.98-.53,2.11-.8,3.4-.8,.68,0,1.33,.08,1.96,.23,.63,.15,1.16,.37,1.6,.65l-1.09,2.17c-.63-.42-1.43-.64-2.39-.64-1.08,0-1.94,.32-2.57,.95-.63,.63-.97,1.55-1.02,2.75,.75-.75,1.81-1.13,3.16-1.13,.81,0,1.56,.16,2.22,.49Zm-1.29,5.02c.39-.34,.59-.8,.59-1.39s-.2-1.05-.59-1.39c-.4-.35-.92-.52-1.58-.52s-1.17,.18-1.59,.54c-.41,.36-.62,.82-.62,1.38s.2,1.02,.6,1.37,.95,.53,1.64,.53c.63,0,1.15-.17,1.54-.51Z"/>
    <path class="cls-4" d="M59.61,292.12h10.95v2.01h-13.11v-19.8h2.16v17.79Zm22.61-7.74c0-1.14-.3-2.03-.9-2.67-.6-.66-1.45-.99-2.55-.99-1,0-1.85,.24-2.55,.72-.7,.46-1.22,1.2-1.56,2.22l-1.77-1.08c.4-1.14,1.11-2.05,2.13-2.73,1.04-.68,2.31-1.02,3.81-1.02,1.06,0,2,.19,2.82,.57,.84,.36,1.5,.92,1.98,1.68,.5,.76,.75,1.72,.75,2.88v7.32c0,.82,.38,1.23,1.14,1.23,.16,0,.34-.01,.54-.03,.2-.04,.37-.09,.51-.15l-.12,1.71c-.16,.08-.37,.15-.63,.21-.24,.06-.52,.09-.84,.09-.52,0-1-.1-1.44-.3-.42-.22-.76-.55-1.02-.99-.24-.46-.36-1.03-.36-1.71v-.42l.54,.06c-.22,.78-.61,1.43-1.17,1.95-.54,.5-1.17,.88-1.89,1.14-.7,.24-1.41,.36-2.13,.36-1.3,0-2.41-.33-3.33-.99-.92-.68-1.38-1.69-1.38-3.03,0-1.08,.34-1.98,1.02-2.7,.7-.74,1.72-1.25,3.06-1.53l5.73-1.2v1.8l-4.71,1.02c-.98,.2-1.71,.49-2.19,.87-.48,.38-.72,.92-.72,1.62s.24,1.23,.72,1.65c.5,.4,1.21,.6,2.13,.6,.54,0,1.07-.07,1.59-.21,.52-.16,.99-.4,1.41-.72,.42-.32,.75-.72,.99-1.2,.26-.5,.39-1.09,.39-1.77v-4.26Zm12.37,10.05c-.94,0-1.81-.18-2.61-.54-.8-.38-1.45-.97-1.95-1.77-.48-.8-.72-1.84-.72-3.12v-9.87h2.16v9.3c0,1.38,.29,2.41,.87,3.09,.58,.68,1.51,1.02,2.79,1.02,.58,0,1.13-.11,1.65-.33,.54-.22,1.01-.54,1.41-.96,.42-.44,.75-.98,.99-1.62,.24-.64,.36-1.38,.36-2.22v-8.28h2.16v15h-1.89l-.12-2.49c-.32,.62-.73,1.14-1.23,1.56-.48,.42-1.05,.73-1.71,.93-.64,.2-1.36,.3-2.16,.3Zm12.62-.3v-15h1.89l.18,3.45-.33-.3c.42-1.2,1.11-2.07,2.07-2.61,.96-.56,2.02-.84,3.18-.84,1.02,0,1.94,.21,2.76,.63,.84,.42,1.51,1.05,2.01,1.89,.5,.82,.75,1.87,.75,3.15v9.63h-2.16v-8.88c0-1.66-.35-2.83-1.05-3.51-.7-.68-1.57-1.02-2.61-1.02-.72,0-1.43,.18-2.13,.54-.7,.36-1.28,.93-1.74,1.71-.44,.78-.66,1.8-.66,3.06v8.1h-2.16Zm23.72-15.3c1,0,1.88,.17,2.64,.51,.78,.32,1.44,.78,1.98,1.38,.54,.58,.97,1.28,1.29,2.1l-2.04,.99c-.28-1-.75-1.76-1.41-2.28-.66-.54-1.5-.81-2.52-.81-.96,0-1.8,.24-2.52,.72-.7,.46-1.24,1.13-1.62,2.01-.38,.88-.57,1.94-.57,3.18s.19,2.28,.57,3.18c.4,.88,.95,1.56,1.65,2.04,.72,.46,1.56,.69,2.52,.69,.76,0,1.42-.12,1.98-.36,.56-.26,1.02-.63,1.38-1.11s.61-1.06,.75-1.74l1.98,.69c-.3,.92-.73,1.71-1.29,2.37-.56,.66-1.25,1.17-2.07,1.53-.8,.34-1.71,.51-2.73,.51-1.34,0-2.53-.31-3.57-.93-1.04-.62-1.86-1.51-2.46-2.67-.58-1.18-.87-2.58-.87-4.2s.3-3.01,.9-4.17c.6-1.18,1.42-2.08,2.46-2.7,1.04-.62,2.23-.93,3.57-.93Zm10.26,15.3v-21.9h2.16v9.36c.48-.94,1.14-1.63,1.98-2.07,.86-.46,1.81-.69,2.85-.69s1.94,.21,2.76,.63c.84,.4,1.51,1.02,2.01,1.86s.75,1.9,.75,3.18v9.63h-2.16v-8.91c0-1.66-.35-2.82-1.05-3.48-.7-.68-1.57-1.02-2.61-1.02-.72,0-1.43,.18-2.13,.54s-1.28,.93-1.74,1.71c-.44,.78-.66,1.8-.66,3.06v8.1h-2.16Z"/>
  </g>
</svg>