<?xml version="1.0" encoding="UTF-8"?>
<svg id="Layer_2" data-name="Layer 2" xmlns="http://www.w3.org/2000/svg" viewBox="0 0 255.42 297.22">
  <defs>
    <style>
      .cls-1 {
        fill: none;
        stroke: #129fc3;
        stroke-miterlimit: 10;
        stroke-width: 2.97px;
      }

      .cls-2 {
        fill: #fff;
      }

      .cls-3 {
        fill: #129fc3;
      }

      .cls-4 {
        fill: #010101;
      }
    </style>
  </defs>
  <g id="Layer_1-2" data-name="Layer 1">
    <g>
      <path class="cls-1" d="M209.68,105.58c0,57.49-46.61,104.1-104.1,104.1S1.48,163.07,1.48,105.58"/>
      <path class="cls-1" d="M15.45,53.46C33.46,22.39,67.08,1.48,105.58,1.48s72.12,20.9,90.13,51.98"/>
      <polygon class="cls-3" points="255.42 104.55 248.03 100.63 248.03 103.06 208.18 103.06 208.18 106.03 248.03 106.03 248.03 108.47 255.42 104.55"/>
    </g>
    <rect class="cls-3" x="48.65" y="184.15" width="112.86" height="33.7" rx="16.85" ry="16.85"/>
    <path class="cls-2" d="M78.29,205.53c-.94-.27-1.7-.63-2.27-1.07l1-2.22c.55,.4,1.2,.72,1.95,.97s1.51,.36,2.26,.36c.84,0,1.46-.12,1.86-.37,.4-.25,.6-.58,.6-.99,0-.3-.12-.56-.36-.76-.24-.2-.54-.36-.91-.48-.37-.12-.87-.26-1.5-.4-.97-.23-1.77-.46-2.39-.69-.62-.23-1.15-.6-1.6-1.11s-.67-1.19-.67-2.04c0-.74,.2-1.41,.6-2.02,.4-.6,1.01-1.08,1.81-1.43,.81-.35,1.8-.53,2.96-.53,.81,0,1.61,.1,2.39,.29,.78,.19,1.46,.47,2.04,.84l-.91,2.24c-1.18-.67-2.36-1-3.54-1-.83,0-1.44,.13-1.83,.4-.4,.27-.59,.62-.59,1.06s.23,.76,.68,.98c.46,.21,1.15,.42,2.09,.63,.97,.23,1.77,.46,2.39,.69,.62,.23,1.15,.6,1.6,1.09,.44,.5,.67,1.17,.67,2.02,0,.73-.2,1.39-.61,2-.41,.6-1.02,1.08-1.83,1.43-.81,.35-1.81,.53-2.97,.53-1.01,0-1.98-.14-2.93-.41Z"/>
    <path class="cls-2" d="M94.78,205.25c-.28,.21-.62,.36-1.03,.47-.41,.1-.84,.15-1.29,.15-1.17,0-2.07-.3-2.71-.89-.64-.59-.96-1.47-.96-2.63v-4.03h-1.51v-2.19h1.51v-2.39h2.84v2.39h2.44v2.19h-2.44v3.99c0,.41,.11,.73,.32,.96,.21,.23,.51,.34,.9,.34,.45,0,.83-.12,1.15-.37l.77,2.01Z"/>
    <path class="cls-2" d="M105.63,201.62h-7.42c.13,.61,.45,1.09,.95,1.44s1.12,.53,1.86,.53c.51,0,.96-.08,1.36-.23,.4-.15,.76-.39,1.1-.72l1.51,1.64c-.92,1.06-2.27,1.59-4.05,1.59-1.11,0-2.08-.21-2.94-.65-.85-.43-1.51-1.03-1.97-1.8s-.69-1.63-.69-2.61,.23-1.83,.68-2.6c.46-.77,1.08-1.37,1.88-1.8,.8-.43,1.69-.65,2.67-.65s1.83,.21,2.61,.62,1.39,1.01,1.83,1.78c.44,.77,.67,1.67,.67,2.69,0,.04-.02,.29-.05,.77Zm-6.66-3.15c-.44,.36-.71,.86-.8,1.5h4.83c-.1-.62-.36-1.12-.8-1.49-.44-.37-.97-.56-1.6-.56s-1.19,.18-1.62,.55Z"/>
    <path class="cls-2" d="M115.87,196.4c.75,.42,1.33,1.01,1.76,1.77,.43,.76,.64,1.64,.64,2.65s-.21,1.89-.64,2.65c-.43,.76-1.01,1.35-1.76,1.77-.75,.42-1.58,.63-2.49,.63-1.25,0-2.24-.39-2.95-1.18v4.58h-2.85v-13.35h2.72v1.13c.71-.85,1.73-1.28,3.08-1.28,.91,0,1.74,.21,2.49,.63Zm-1.19,6.4c.47-.49,.7-1.15,.7-1.98s-.23-1.49-.7-1.98c-.47-.49-1.07-.74-1.8-.74s-1.33,.25-1.8,.74c-.47,.49-.7,1.15-.7,1.98s.23,1.49,.7,1.98c.47,.49,1.07,.74,1.8,.74s1.33-.25,1.8-.74Z"/>
    <g>
      <path class="cls-3" d="M94.29,147.11c-3.21,0-6.42-.01-9.62,0-1.32,0-2.63,.08-3.95,.1-.62,0-.37,.35-.27,.61,1.22,2.87,3.38,4.63,6.5,5.24,.62,.12,1.25,.13,1.88,.13,4.8,0,9.6,0,14.41,0,.86,0,.86,.01,.87,.87,0,.79-.39,1.18-1.18,1.18-4.86,0-9.73,.01-14.59,0-4.64-.02-8.68-2.94-10.06-7.28-.19-.59-.45-.75-1.05-.75-3.35,.03-6.71,.01-10.06,.01-1.15,0-1.5-.35-1.5-1.47,0-4.77,0-9.54,0-14.31,0-1.06,.39-1.44,1.49-1.44,3.27,0,6.54-.02,9.81,.01,.65,0,.81-.2,.81-.81-.02-5.08-.01-10.15-.01-15.23,0-.8,0-.8-.85-.8-.46,0-.92-.01-1.38,0-.36,0-.53-.13-.56-.5-.11-1.21-.26-2.41-.35-3.62-.03-.43-.16-.66-.63-.75-2.57-.54-4.95-1.53-7.16-2.93-.3-.19-.51-.16-.78,.05-.96,.8-1.95,1.56-2.9,2.37-.34,.28-.56,.29-.89-.03-1.5-1.5-3.01-2.98-4.54-4.45-.37-.35-.36-.61-.03-.98,.78-.88,1.52-1.81,2.3-2.7,.26-.3,.34-.53,.09-.91-1.42-2.11-2.38-4.43-2.94-6.9-.1-.44-.28-.61-.74-.64-1.19-.08-2.38-.24-3.56-.33-.49-.03-.65-.23-.64-.69,.02-2.1,.02-4.19,0-6.29,0-.44,.14-.62,.6-.66,1.19-.09,2.38-.24,3.56-.33,.44-.03,.67-.18,.77-.63,.56-2.49,1.55-4.82,2.96-6.96,.23-.35,.18-.56-.08-.85-.81-.92-1.57-1.87-2.37-2.79-.27-.31-.29-.53,.02-.83,1.55-1.5,3.1-3.01,4.63-4.53,.33-.33,.57-.28,.89,0,.96,.8,1.94,1.57,2.9,2.37,.25,.21,.43,.23,.71,.05,2.24-1.42,4.66-2.42,7.27-2.97,.42-.09,.51-.35,.54-.71,.1-1.19,.25-2.37,.34-3.56,.04-.42,.22-.56,.64-.55,2.16,.01,4.32,.02,6.48,0,.51,0,.63,.22,.67,.66,.1,1.19,.25,2.37,.35,3.56,.03,.37,.19,.54,.56,.61,2.58,.56,4.99,1.54,7.21,2.96,.32,.2,.52,.12,.77-.08,.95-.78,1.92-1.53,2.85-2.33,.36-.31,.61-.31,.95,.03,1.51,1.51,3.04,3.01,4.58,4.49,.31,.3,.3,.52,.03,.83-.82,.94-1.6,1.9-2.41,2.84-.24,.28-.27,.49-.06,.81,1.39,2.11,2.39,4.38,2.93,6.84,.12,.53,.35,.74,.92,.77,1.17,.06,2.33,.22,3.5,.32,.42,.03,.59,.2,.58,.62-.01,2.14-.01,4.27,0,6.41,0,.43-.2,.56-.61,.6-1.23,.1-2.46,.25-3.69,.34-.41,.03-.57,.18-.66,.57-.57,2.51-1.55,4.86-2.99,7.01-.22,.32-.16,.53,.08,.81,.79,.91,1.54,1.85,2.33,2.75,.32,.36,.36,.6-.03,.96-1.51,1.43-2.99,2.88-4.45,4.36-.42,.43-.69,.41-1.12,.03-.87-.77-1.81-1.46-2.7-2.21-.3-.25-.52-.3-.87-.08-2.18,1.39-4.56,2.36-7.1,2.9-.42,.09-.58,.27-.61,.69-.09,1.17-.25,2.33-.33,3.5-.04,.54-.25,.73-.78,.69-.46-.03-.93,.03-1.38-.02-.61-.06-.76,.2-.74,.74,.03,.9,0,1.81,0,2.71,0,4.19,.01,8.39-.01,12.58,0,.61,.16,.8,.81,.82,8.11,.22,16.22,.06,24.33,.14,.45,0,.86,.08,1.25,.31,4.38,2.59,8.76,5.18,13.15,7.76,.7,.41,.7,.45,.02,.85-4.31,2.54-8.62,5.08-12.93,7.64-.47,.28-.93,.4-1.48,.4-3.57-.02-7.13,0-10.69,0h0Zm-31.33-72.29c-.13,.2-.25,.39-.38,.57-1.94,2.61-3.17,5.5-3.64,8.69-.08,.53-.32,.72-.86,.74-1.05,.05-2.09,.18-3.13,.26-.48,.04-.69,.24-.67,.74,.04,.84,.03,1.69,0,2.53-.01,.42,.15,.57,.57,.6,1.13,.08,2.25,.24,3.38,.32,.45,.03,.63,.22,.69,.63,.48,3.3,1.76,6.28,3.79,8.95,.26,.34,.19,.56-.06,.85-.75,.86-1.46,1.75-2.21,2.61-.26,.3-.26,.51,.03,.78,.67,.63,1.32,1.26,1.96,1.92,.28,.29,.49,.29,.79,.04,.84-.71,1.73-1.37,2.56-2.09,.41-.35,.71-.35,1.14-.03,2.66,1.93,5.64,3.13,8.92,3.61,.54,.08,.7,.31,.73,.8,.07,1.04,.19,2.09,.28,3.13,.04,.46,.22,.69,.75,.67,.86-.04,1.72-.03,2.58,0,.42,.01,.59-.12,.62-.55,.09-1.15,.24-2.29,.34-3.43,.03-.38,.2-.53,.57-.58,3.39-.48,6.45-1.73,9.19-3.74,.31-.23,.52-.21,.82,.03,.88,.73,1.79,1.43,2.66,2.17,.32,.27,.54,.3,.84-.02,.63-.66,1.29-1.29,1.96-1.92,.29-.27,.29-.48,.03-.78-.74-.84-1.44-1.72-2.18-2.56-.29-.33-.33-.58-.05-.96,2-2.64,3.26-5.59,3.75-8.84,.07-.44,.21-.64,.7-.67,1.15-.08,2.29-.24,3.44-.33,.41-.03,.54-.2,.54-.58-.01-.84-.03-1.69,0-2.53,.02-.51-.2-.7-.68-.74-1.06-.09-2.13-.22-3.19-.28-.5-.03-.74-.19-.82-.71-.5-3.25-1.75-6.21-3.75-8.84-.29-.39-.23-.63,.06-.96,.74-.84,1.44-1.72,2.18-2.56,.28-.32,.26-.53-.05-.82-.66-.6-1.3-1.23-1.91-1.87-.29-.3-.48-.34-.81-.05-.88,.76-1.81,1.47-2.71,2.21-.26,.21-.47,.28-.77,.06-2.75-2.02-5.83-3.29-9.25-3.77-.36-.05-.54-.21-.57-.6-.09-1.1-.26-2.2-.33-3.31-.03-.53-.26-.65-.74-.63-.8,.03-1.6,.05-2.39,0-.62-.04-.81,.23-.85,.77-.07,1.02-.2,2.04-.26,3.07-.03,.46-.23,.65-.68,.72-3.32,.47-6.33,1.7-9.03,3.66-.4,.29-.67,.26-1.03-.05-.84-.72-1.72-1.38-2.56-2.1-.32-.27-.55-.27-.85,.03-.61,.63-1.23,1.24-1.87,1.83-.34,.31-.39,.55-.05,.92,.75,.83,1.45,1.7,2.17,2.56,.1,.12,.19,.26,.3,.43h0Zm30.6,64.86c-3.37,0-6.75,0-10.13,0-.51,0-.7,.14-.7,.65,.02,1.36,.02,2.71,0,4.07,0,.5,.21,.68,.72,.68,6.77-.01,13.54-.01,20.31,0,.5,0,.66-.16,.65-.64-.03-1.27,0-2.55,0-3.82,0-.61-.31-.92-.92-.92h-9.94Zm.02-2.12h10c.83,0,.83,0,.83-.83,0-1.23-.03-2.47,.01-3.7,.02-.59-.18-.77-.78-.77-2.81,0-5.62,0-8.43-.05-3.94-.07-7.88-.02-11.83-.04-.49,0-.66,.15-.65,.64,.03,1.34,.04,2.67,0,4.01-.02,.59,.17,.77,.78,.77,3.35-.03,6.71-.01,10.07-.01Zm-25.83,1.05c0,1.97,.01,3.94,0,5.92,0,.46,.11,.67,.63,.66,1.44-.03,2.89-.03,4.34,0,.5,0,.65-.17,.64-.65-.01-3.94-.01-7.89,0-11.83,0-.46-.11-.67-.63-.66-1.44,.03-2.89,.03-4.34,0-.51-.01-.65,.17-.64,.64,.02,1.97,0,3.94,0,5.92h0Zm7.69,.07c0,1.95,.01,3.9,0,5.85,0,.47,.12,.66,.64,.65,1.32-.03,2.64-.02,3.96,0,.46,0,.62-.14,.62-.6-.01-3.98-.01-7.97,0-11.95,0-.43-.15-.58-.59-.57-1.28,.02-2.56,.03-3.83,0-.61-.02-.81,.19-.8,.78,.03,1.95,.01,3.9,.01,5.85h0Zm31.06,5.53c.17-.06,.23-.07,.28-.1,2.93-1.72,5.86-3.46,8.79-5.17,.42-.24,.32-.36-.03-.56-2.84-1.67-5.68-3.33-8.52-5.02-.45-.27-.54-.18-.54,.31,.02,2.61,0,5.22,0,7.83v2.71Z"/>
      <path class="cls-3" d="M140.74,153.19c-1.08-1.03-2.01-2.07-2.71-3.3-.97-1.71-1.36-3.56-1.36-5.51v-60.74c0-.81-.01-.82-.85-.82h-26.23c-.21,0-.42-.02-.63,0-.41,.03-.58-.16-.56-.55,0-.1,.01-.2,.02-.31,.04-.84,.51-1.26,1.39-1.26h27.93c.72,0,1.08,.35,1.08,1.05v45.82c0,.21,.02,.41,0,.62-.04,.46,.17,.61,.63,.61,1.59-.02,3.19,0,4.78,0,.88,0,.89,.01,.89,.85,0,1.34,.15,1.26-1.29,1.26s-2.89,.01-4.34,0c-.48,0-.67,.15-.67,.64,.01,4.56-.03,9.13,.03,13.69,.05,3.82,3.16,7.24,7.01,7.84,5.42,.84,10.02-3.02,10.03-8.41,0-4.32-.01-8.63,.01-12.95,0-.61-.17-.83-.81-.81-1.57,.04-3.15,0-4.72,.02-.54,0-.73-.19-.74-.72-.02-1.4-.04-1.4,1.36-1.4,2.03,0,4.07,0,6.1,0,.88,0,.89,.01,.89,.85,0,5.1,0,10.2,0,15.29-.01,4.77-3.38,8.92-8.11,10.05-.78,.18-1.56,.28-2.36,.28-12.48-.01-24.95,0-37.43-.02-.31,0-.77,.19-.89-.22-.16-.54-.18-1.14,.04-1.69,.05-.13,.21-.12,.33-.13,.21,0,.42,0,.63,0h30.56Z"/>
      <path class="cls-3" d="M119.41,92.17c-1.52-.01-2.77,.57-3.74,1.72-.27,.32-.49,.4-.82,.12-.16-.13-.35-.23-.52-.34-.79-.52-.8-.54-.18-1.23,.03-.03,.05-.07,.08-.09,1.12-.68,1.24-1.73,1.13-2.88-.05-.61-.06-1.24,.04-1.85,.32-2.03,2.24-3.41,4.44-3.26,1.96,.14,3.61,1.87,3.65,3.84,.02,.88,.01,1.77,0,2.65,0,.33,.1,.57,.36,.8,3.37,2.9,3.38,7.6,.01,10.46-.28,.24-.35,.45-.23,.79,1.04,3.06,2.07,6.12,3.09,9.19,.14,.42,.34,.57,.78,.4,.47-.18,.95-.31,1.42-.5,.31-.12,.51-.08,.67,.22,.8,1.56,1.12,1.35-.72,2.03-1.26,.46-1.27,.44-.86,1.67,1.04,3.1,2.07,6.21,3.14,9.3,.2,.57,.14,.84-.5,1.02-1.46,.4-1.2,.6-1.69-.85-1.1-3.24-2.19-6.47-3.25-9.72-.15-.46-.34-.6-.84-.53-2.04,.28-4.08,.41-6.14,.37-1.59-.03-3.18-.13-4.76-.37-.55-.09-.71,.12-.86,.57-1.14,3.44-2.31,6.87-3.44,10.31-.16,.5-.37,.58-.86,.42-1.37-.46-1.37-.44-.91-1.81,1.04-3.1,2.07-6.21,3.13-9.3,.19-.55,.09-.77-.49-.89-.51-.11-.99-.34-1.47-.52-.14-.05-.33-.12-.37-.22-.21-.62,.38-.97,.56-1.47,.1-.28,.3-.34,.6-.22,.52,.2,1.07,.36,1.6,.55,.35,.13,.5-.01,.6-.32,1.04-3.12,2.09-6.24,3.15-9.36,.11-.33,0-.53-.25-.73-1.41-1.14-2.19-2.62-2.46-4.37-.12-.8-.03-.91,.77-.92h.25c.65,0,1.03,.31,1.14,.92,.41,2.32,2.46,3.93,4.94,3.89,2.28-.04,4.28-1.81,4.59-4.07,.39-2.93-1.8-5.39-4.78-5.39h0Zm-.08,21.22c1.66,0,3.31-.05,4.95-.27,.41-.05,.5-.18,.38-.55-.98-2.91-1.96-5.81-2.93-8.72-.11-.34-.29-.43-.66-.34-1.09,.27-2.2,.27-3.3,0-.4-.1-.57,0-.69,.37-.96,2.89-1.93,5.78-2.91,8.66-.14,.4-.05,.53,.39,.59,1.58,.21,3.17,.26,4.76,.27Zm-1.88-24.37c0,.25,.01,.49,0,.74-.03,.46,.16,.56,.6,.46,.93-.22,1.87-.21,2.79,.01,.43,.1,.57-.05,.56-.45-.02-.51,.02-1.02-.02-1.53-.08-1.08-.97-1.85-2.06-1.82-1.03,.03-1.85,.86-1.88,1.93,0,.22,0,.45,0,.68h0Z"/>
      <path class="cls-3" d="M66.66,87.03c0-6.68,5.41-11.94,12.25-11.93,6.7,.01,12.13,5.37,12.12,11.96-.01,6.61-5.51,11.94-12.31,11.92-6.65-.02-12.07-5.39-12.06-11.95Zm19.74-6.41c-.02-.24-.22-.35-.36-.48-2.41-2.33-5.29-3.31-8.65-2.87-4.68,.61-8.5,4.66-8.63,9.15-.15,5.14,3.15,9.35,8.06,10.3,.62,.12,.93-.12,.93-.72v-14.42c0-.86,.01-.87,.87-.87,2.37,0,4.74,0,7.11,0,.22,0,.46,.07,.67-.08h0Zm-6.55,9.17c0,2.13,0,4.27,0,6.4,0,.47,.11,.68,.65,.6,6.26-.94,10.15-7.73,7.7-13.45-.18-.41-.42-.54-.85-.54-2.26,.01-4.52,.02-6.78,0-.55,0-.72,.17-.72,.71,.03,2.09,.01,4.19,.01,6.28Z"/>
    </g>
    <path class="cls-4" d="M54.22,270.97c1.92,0,3.46,.54,4.62,1.62,1.18,1.06,1.77,2.51,1.77,4.35s-.59,3.3-1.77,4.38c-1.16,1.06-2.7,1.59-4.62,1.59h-4.47v7.86h-2.16v-19.8h6.63Zm-.33,9.9c1.52,0,2.64-.33,3.36-.99,.72-.68,1.08-1.66,1.08-2.94s-.36-2.26-1.08-2.94c-.72-.68-1.84-1.02-3.36-1.02h-4.14v7.89h4.14Zm12.87-12v18.15c0,.72,.11,1.26,.33,1.62s.64,.54,1.26,.54c.34,0,.62-.03,.84-.09s.51-.17,.87-.33l-.3,1.89c-.26,.14-.58,.24-.96,.3-.36,.08-.71,.12-1.05,.12-1.2,0-2.03-.37-2.49-1.11-.44-.74-.66-1.69-.66-2.85v-18.24h2.16Zm14.8,12.15c0-1.14-.3-2.03-.9-2.67-.6-.66-1.45-.99-2.55-.99-1,0-1.85,.24-2.55,.72-.7,.46-1.22,1.2-1.56,2.22l-1.77-1.08c.4-1.14,1.11-2.05,2.13-2.73,1.04-.68,2.31-1.02,3.81-1.02,1.06,0,2,.19,2.82,.57,.84,.36,1.5,.92,1.98,1.68,.5,.76,.75,1.72,.75,2.88v7.32c0,.82,.38,1.23,1.14,1.23,.16,0,.34,0,.54-.03,.2-.04,.37-.09,.51-.15l-.12,1.71c-.16,.08-.37,.15-.63,.21-.24,.06-.52,.09-.84,.09-.52,0-1-.1-1.44-.3-.42-.22-.76-.55-1.02-.99-.24-.46-.36-1.03-.36-1.71v-.42l.54,.06c-.22,.78-.61,1.43-1.17,1.95-.54,.5-1.17,.88-1.89,1.14-.7,.24-1.41,.36-2.13,.36-1.3,0-2.41-.33-3.33-.99-.92-.68-1.38-1.69-1.38-3.03,0-1.08,.34-1.98,1.02-2.7,.7-.74,1.72-1.25,3.06-1.53l5.73-1.2v1.8l-4.71,1.02c-.98,.2-1.71,.49-2.19,.87-.48,.38-.72,.92-.72,1.62s.24,1.23,.72,1.65c.5,.4,1.21,.6,2.13,.6,.54,0,1.07-.07,1.59-.21,.52-.16,.99-.4,1.41-.72s.75-.72,.99-1.2c.26-.5,.39-1.09,.39-1.77v-4.26Zm7.27,9.75v-15h1.89l.18,3.45-.33-.3c.42-1.2,1.11-2.07,2.07-2.61,.96-.56,2.02-.84,3.18-.84,1.02,0,1.94,.21,2.76,.63,.84,.42,1.51,1.05,2.01,1.89,.5,.82,.75,1.87,.75,3.15v9.63h-2.16v-8.88c0-1.66-.35-2.83-1.05-3.51-.7-.68-1.57-1.02-2.61-1.02-.72,0-1.43,.18-2.13,.54s-1.28,.93-1.74,1.71c-.44,.78-.66,1.8-.66,3.06v8.1h-2.16Zm17.84,0v-15h1.89l.18,3.45-.33-.3c.42-1.2,1.11-2.07,2.07-2.61,.96-.56,2.02-.84,3.18-.84,1.02,0,1.94,.21,2.76,.63,.84,.42,1.51,1.05,2.01,1.89,.5,.82,.75,1.87,.75,3.15v9.63h-2.16v-8.88c0-1.66-.35-2.83-1.05-3.51s-1.57-1.02-2.61-1.02c-.72,0-1.43,.18-2.13,.54-.7,.36-1.28,.93-1.74,1.71-.44,.78-.66,1.8-.66,3.06v8.1h-2.16Zm20-15v15h-2.16v-15h2.16Zm-.93-2.88c-.54,0-.98-.16-1.32-.48-.32-.34-.48-.78-.48-1.32s.16-.97,.48-1.29c.34-.34,.78-.51,1.32-.51s.97,.17,1.29,.51c.34,.32,.51,.75,.51,1.29s-.17,.98-.51,1.32c-.32,.32-.75,.48-1.29,.48Zm6.45,17.88v-15h1.89l.18,3.45-.33-.3c.42-1.2,1.11-2.07,2.07-2.61,.96-.56,2.02-.84,3.18-.84,1.02,0,1.94,.21,2.76,.63,.84,.42,1.51,1.05,2.01,1.89,.5,.82,.75,1.87,.75,3.15v9.63h-2.16v-8.88c0-1.66-.35-2.83-1.05-3.51-.7-.68-1.57-1.02-2.61-1.02-.72,0-1.43,.18-2.13,.54s-1.28,.93-1.74,1.71c-.44,.78-.66,1.8-.66,3.06v8.1h-2.16Zm29.9-17.76l.48,1.92h-.21c-.94,0-1.67,.21-2.19,.63-.5,.42-.75,1.07-.75,1.95l-1.29-.69c0-.78,.17-1.45,.51-2.01,.34-.58,.79-1.02,1.35-1.32,.58-.32,1.23-.48,1.95-.48h.15Zm-4.5,15.96c1.4,0,2.49,.33,3.27,.99,.78,.64,1.17,1.49,1.17,2.55,0,.96-.31,1.79-.93,2.49-.6,.7-1.43,1.24-2.49,1.62-1.04,.4-2.22,.6-3.54,.6-2.24,0-3.93-.4-5.07-1.2-1.12-.78-1.68-1.74-1.68-2.88,0-.8,.27-1.52,.81-2.16,.54-.62,1.4-.98,2.58-1.08l-.15,.42c-.66-.18-1.22-.49-1.68-.93-.46-.44-.69-1.06-.69-1.86s.28-1.44,.84-2.04c.58-.6,1.44-.96,2.58-1.08l1.56,.72h-.39c-.92,.08-1.6,.32-2.04,.72-.42,.38-.63,.83-.63,1.35,0,.58,.21,1.02,.63,1.32s.99,.45,1.71,.45h4.14Zm-2.49,6.48c1.1,0,2.02-.13,2.76-.39,.74-.24,1.3-.57,1.68-.99,.38-.4,.57-.84,.57-1.32,0-.6-.24-1.08-.72-1.44-.46-.34-1.23-.51-2.31-.51h-4.35c-.68,0-1.26,.18-1.74,.54-.48,.38-.72,.88-.72,1.5,0,.78,.43,1.41,1.29,1.89,.86,.48,2.04,.72,3.54,.72Zm-.21-19.98c1.16,0,2.18,.22,3.06,.66,.88,.42,1.57,1.01,2.07,1.77,.5,.74,.75,1.6,.75,2.58s-.26,1.85-.78,2.61c-.5,.76-1.19,1.36-2.07,1.8-.88,.42-1.89,.63-3.03,.63-1.88,0-3.34-.47-4.38-1.41-1.02-.94-1.53-2.15-1.53-3.63,0-.98,.25-1.84,.75-2.58,.5-.76,1.19-1.35,2.07-1.77,.9-.44,1.93-.66,3.09-.66Zm0,1.74c-1.06,0-1.95,.3-2.67,.9-.7,.6-1.05,1.39-1.05,2.37s.36,1.78,1.08,2.4c.72,.6,1.6,.9,2.64,.9s1.91-.3,2.61-.9c.72-.62,1.08-1.42,1.08-2.4s-.35-1.77-1.05-2.37c-.7-.6-1.58-.9-2.64-.9Z"/>
  </g>
</svg>