<?xml version="1.0" encoding="UTF-8"?>
<svg id="Layer_2" data-name="Layer 2" xmlns="http://www.w3.org/2000/svg" viewBox="0 0 255.43 293.94">
  <defs>
    <style>
      .cls-1 {
        fill: #fff;
      }

      .cls-2 {
        fill: none;
        stroke: #515ba7;
        stroke-miterlimit: 10;
        stroke-width: 2.97px;
      }

      .cls-3 {
        fill: #515ba7;
      }

      .cls-4 {
        fill: #010101;
      }
    </style>
  </defs>
  <g id="Layer_1-2" data-name="Layer 1">
    <g>
      <path class="cls-2" d="M209.68,105.58c0,57.49-46.61,104.1-104.1,104.1S1.48,163.07,1.48,105.58"/>
      <path class="cls-2" d="M15.45,53.46C33.46,22.39,67.08,1.48,105.58,1.48s72.12,20.9,90.13,51.98"/>
      <polygon class="cls-3" points="255.43 104.56 248.04 100.64 248.04 103.07 208.19 103.07 208.19 106.04 248.04 106.04 248.04 108.48 255.43 104.56"/>
    </g>
    <rect class="cls-3" x="46.79" y="184.15" width="112.86" height="33.7" rx="16.85" ry="16.85"/>
    <path class="cls-1" d="M75.29,205.53c-.94-.27-1.7-.63-2.27-1.07l1-2.22c.55,.4,1.2,.72,1.95,.97s1.51,.36,2.26,.36c.84,0,1.46-.12,1.86-.37s.6-.58,.6-.99c0-.3-.12-.56-.36-.76-.24-.2-.54-.36-.91-.48-.37-.12-.87-.26-1.5-.4-.97-.23-1.77-.46-2.39-.69-.62-.23-1.15-.6-1.6-1.11-.44-.51-.67-1.19-.67-2.04,0-.74,.2-1.41,.6-2.02s1.01-1.08,1.81-1.43c.81-.35,1.8-.53,2.96-.53,.81,0,1.61,.1,2.39,.29,.78,.19,1.46,.47,2.04,.84l-.91,2.24c-1.18-.67-2.36-1-3.54-1-.83,0-1.44,.13-1.83,.4-.39,.27-.59,.62-.59,1.06s.23,.76,.68,.98c.46,.21,1.15,.42,2.09,.63,.97,.23,1.77,.46,2.39,.69,.62,.23,1.15,.6,1.6,1.09,.44,.5,.67,1.17,.67,2.02,0,.73-.2,1.39-.61,2-.41,.6-1.02,1.08-1.83,1.43-.81,.35-1.81,.53-2.97,.53-1.01,0-1.99-.14-2.93-.41Z"/>
    <path class="cls-1" d="M91.79,205.25c-.28,.21-.62,.36-1.03,.47-.41,.1-.84,.15-1.29,.15-1.17,0-2.07-.3-2.71-.89-.64-.59-.96-1.47-.96-2.63v-4.03h-1.51v-2.19h1.51v-2.39h2.85v2.39h2.44v2.19h-2.44v3.99c0,.41,.11,.73,.32,.96,.21,.23,.51,.34,.9,.34,.45,0,.83-.12,1.15-.37l.77,2.01Z"/>
    <path class="cls-1" d="M102.64,201.62h-7.42c.13,.61,.45,1.09,.95,1.44,.5,.35,1.12,.53,1.86,.53,.51,0,.96-.08,1.36-.23,.39-.15,.76-.39,1.1-.72l1.51,1.64c-.92,1.06-2.27,1.59-4.05,1.59-1.11,0-2.09-.21-2.94-.65-.85-.43-1.51-1.03-1.97-1.8s-.69-1.63-.69-2.61,.23-1.83,.68-2.6c.46-.77,1.08-1.37,1.88-1.8,.8-.43,1.69-.65,2.67-.65s1.83,.21,2.61,.62c.78,.41,1.39,1.01,1.83,1.78,.44,.77,.67,1.67,.67,2.69,0,.04-.02,.29-.05,.77Zm-6.66-3.15c-.44,.36-.71,.86-.8,1.5h4.83c-.1-.62-.37-1.12-.8-1.49s-.97-.56-1.6-.56-1.19,.18-1.62,.55Z"/>
    <path class="cls-1" d="M112.88,196.4c.75,.42,1.33,1.01,1.76,1.77,.42,.76,.64,1.64,.64,2.65s-.21,1.89-.64,2.65c-.43,.76-1.01,1.35-1.76,1.77-.75,.42-1.58,.63-2.49,.63-1.25,0-2.24-.39-2.96-1.18v4.58h-2.84v-13.35h2.72v1.13c.71-.85,1.73-1.28,3.08-1.28,.91,0,1.74,.21,2.49,.63Zm-1.18,6.4c.47-.49,.7-1.15,.7-1.98s-.23-1.49-.7-1.98c-.47-.49-1.07-.74-1.8-.74s-1.33,.25-1.8,.74c-.47,.49-.7,1.15-.7,1.98s.23,1.49,.7,1.98c.47,.49,1.07,.74,1.8,.74s1.33-.25,1.8-.74Z"/>
    <g>
      <path class="cls-3" d="M133.28,108.62c.02-10.22-.01-20.44,.05-30.67,0-1.39-.4-2.36-1.36-3.31-4.03-3.99-8.04-7.99-11.95-12.1-1.17-1.22-2.36-1.63-4-1.63-11.28,.06-22.56,.02-33.85,.04-5.03,0-6.85,1.91-6.85,7.11,0,12.03,0,24.06,0,36.09,0,12.3-.01,24.6,0,36.91,0,4.34,2.12,6.45,6.41,6.46,10.03,.01,20.06,0,30.09,0,.54,0,1.08,.02,1.61-.04,.59-.06,1.02-.39,1.02-1.03,0-.64-.46-.98-1.02-1.05-.71-.09-1.43-.05-2.15-.05-9.85,0-19.7,0-29.55,0-3.07,0-4.26-1.15-4.26-4.18-.02-24.61-.02-49.21,0-73.81,0-3.07,1.17-4.28,4.22-4.29,11.01-.04,22.03,.02,33.04-.06,1.74-.01,2.1,.57,2.05,2.18-.12,3.25,.07,6.52-.07,9.77-.09,2.07,.67,2.68,2.65,2.58,3.04-.15,6.1,.14,9.13-.1,2.36-.18,2.74,.7,2.71,2.86-.12,9.41-.07,18.81-.03,28.22,0,.95-.56,2.53,1.12,2.49,1.39-.04,.99-1.48,.99-2.39Zm-13.05-33.28c-1.06,.02-1.39-.39-1.37-1.42,.05-2.87,.02-5.75,.02-8.31,3.16,3.2,6.42,6.51,9.59,9.72-2.44,0-5.34-.03-8.25,.02Z"/>
      <path class="cls-3" d="M134.95,120.6c.05,.65,.07,1.36-.69,1.55-.83,.2-1.36-.25-1.44-1.13-.19-1.99-1.34-3.08-3.23-3.35-.9-.13-1.33-.53-1.16-1.39,.16-.75,.79-.83,1.47-.81,2.37,.09,5.01,2.76,5.05,5.13Z"/>
      <path class="cls-3" d="M137.82,118.56c-1.25-4.04-4.8-6.55-8.91-6.36-4.21,.2-7.61,3.22-8.39,7.72-.47,2.73-1.48,5.16-2.98,7.44-.6,.9-1.08,1.24-1.98,.21-1.02-1.14-2.43-1.7-3.85-.79-1.15,.73-1.95,.62-3.05-.12-1.22-.82-2.65-.52-3.73,.41-.28,.2-.86,.69-1.21,1.54-.23,.56-.27,1.06-.27,1.37,2.65,3.02,5.31,6.04,7.96,9.06,2.81,2.87,5.62,5.74,8.43,8.61,.46-.02,2.34-.17,3.57-1.66,.24-.3,.73-.91,.86-1.82,.12-.79-.07-1.61-.52-2.43-.37-.68-.95-1.15-.25-2.1,1.18-1.61,.84-3.28-.56-4.61-.86-.82-.61-1.26,.19-1.82,2.31-1.6,4.8-2.65,7.58-3.13,4.48-.76,7.46-4.39,7.48-9.51-.05-.25-.12-1.16-.39-2h0Zm-25.78,10.61c.22-.33,.69-.48,1.02-.69,.34,.19,.62,.28,.8,.46,2.6,2.58,5.19,5.16,7.76,7.76,.48,.49,.59,1.15,.13,1.71-.71,.85-1.08-.05-1.45-.41-2.6-2.58-5.17-5.19-7.73-7.81-.27-.28-.85-.53-.52-1.03Zm9.81,15.3c-.57,.59-.94-.07-1.28-.41-4.62-4.65-9.23-9.31-13.83-13.99-.28-.29-.82-.51-.61-1.06,.19-.49,.65-.55,1.12-.55,.81,.04,1.22,.69,1.71,1.19,3.99,4.02,7.97,8.04,11.94,12.06,.37,.38,.77,.76,1.03,1.22,.28,.48,.3,1.12-.09,1.53Zm8.87-16.6c-3.31,.57-6.38,1.64-8.99,3.78-1.04,.85-1.64,.56-2.43-.29-.73-.78-1.26-1.29-.35-2.42,2.06-2.55,3.15-5.55,3.71-8.82,.65-3.79,3.97-6.19,7.54-5.71,3.43,.46,5.89,3.37,5.84,6.92-.04,3.16-2.21,6-5.32,6.54Z"/>
      <path class="cls-3" d="M68.24,111.38c0-12.39,0-24.78,0-37.16,0-3.14,1.54-5.35,4.08-5.9,.85-.19,1.99-.47,2.29,.7,.26,1.02-.68,1.21-1.53,1.4-1.96,.44-2.71,1.79-2.7,3.76,.02,24.87,.02,49.73,0,74.6,0,2.61,1.33,3.89,3.76,3.9,15.31,.04,30.61,.03,45.92,.03,2.19,0,3.51-1.09,3.95-3.27,.13-.63,.32-1.36,1.13-1.18,.81,.18,1.04,.86,.89,1.7-.44,2.46-1.76,4.12-4.23,4.65-.86,.18-1.78,.16-2.67,.16-14.59,0-29.18,0-43.77,0-5.51,0-7.12-1.67-7.12-7.3,0-12.03,0-24.05,0-36.08Z"/>
      <path class="cls-3" d="M123.64,98.1c-.24-10.44-9.21-18.96-19.7-18.69-10.94,.27-19.25,9.14-18.97,20.25,.26,10.46,9.15,18.89,19.71,18.7,10.89-.2,19.22-9.1,18.96-20.25Zm-19.37,18.14c-9.53-.06-17.17-7.81-17.15-17.4,.02-9.57,7.78-17.38,17.24-17.34,9.5,.04,17.14,7.8,17.14,17.42,0,9.55-7.77,17.37-17.23,17.31Z"/>
      <path class="cls-3" d="M95.96,139.88c3.21,0,6.43,0,9.64,0,.84,0,1.77,.04,1.75,1.11-.02,1.07-.96,1.07-1.8,1.07-6.34,0-12.68,0-19.01,0-.81,0-1.77,.07-1.74-1.11,.02-1.16,.98-1.06,1.79-1.07,3.12,0,6.25,0,9.37,0h0Z"/>
      <path class="cls-3" d="M133.29,137.76c0,.99,0,1.98,0,2.97,0,5.09-2.85,7.52-7.9,6.79-.65-.09-1.29-.1-1.28-.98,0-.78,.52-1.03,1.2-1.19,3.89-.89,5.84-3.37,5.84-7.43,0-1.62,0-3.24,0-4.86,0-.83,.04-1.81,1.12-1.75,1.02,.05,1.05,1.01,1.04,1.85-.02,1.53,0,3.06,0,4.59Z"/>
      <path class="cls-3" d="M92.73,135.34c1.96,0,3.93-.01,5.89,.01,.62,0,1.33,.04,1.39,.91,.06,.97-.64,1.23-1.4,1.23-4.11,.03-8.21,.02-12.32,.02-.77,0-1.5-.2-1.52-1.13-.02-1.02,.8-1.03,1.53-1.04,2.14-.01,4.28,0,6.43,0h0Z"/>
      <path class="cls-3" d="M134.26,122.14c-.83,.2-1.36-.25-1.44-1.13-.19-1.99-1.34-3.08-3.23-3.35-.9-.13-1.33-.53-1.16-1.39,.16-.75,.79-.83,1.47-.81,2.37,.09,5.01,2.76,5.05,5.13,.05,.65,.07,1.36-.69,1.55Z"/>
      <path class="cls-3" d="M134.26,122.14c-.83,.2-1.36-.25-1.44-1.13-.19-1.99-1.34-3.08-3.23-3.35-.9-.13-1.33-.53-1.16-1.39,.16-.75,.79-.83,1.47-.81,2.37,.09,5.01,2.76,5.05,5.13,.05,.65,.07,1.36-.69,1.55Z"/>
      <path class="cls-3" d="M104.11,82.9c-8.59,.08-15.54,7.23-15.53,15.98,.01,8.87,7.11,16.06,15.79,16,8.74-.05,15.71-7.23,15.67-16.13-.04-8.85-7.15-15.93-15.93-15.85Zm-.04,29.8c-7.58-.12-13.54-6.49-13.33-14.27,.2-7.59,6.4-13.53,13.95-13.35,7.43,.17,13.41,6.55,13.23,14.11-.18,7.6-6.36,13.63-13.85,13.51Z"/>
      <path class="cls-3" d="M113.27,93.9c-.32,.41-.65,.94-1.08,1.37-2.9,2.95-5.86,5.84-8.7,8.84-1.16,1.23-2,1.15-3.07-.03-1.27-1.4-2.67-2.67-3.96-4.04-.56-.6-1.68-1.26-.74-2.21,1.04-1.05,1.71,.12,2.38,.77,.97,.94,1.97,1.85,2.84,2.88,.77,.92,1.27,.84,2.07,0,2.61-2.73,5.3-5.38,7.96-8.05,.44-.45,.87-.99,1.59-.71,.43,.16,.7,.52,.72,1.17Z"/>
    </g>
    <path class="cls-4" d="M37.09,293.64v-19.8h13.29v2.01h-11.13v6.72h8.7v2.04h-8.7v7.02h11.55v2.01h-13.71Zm19.06-15l4.32,6.33,.21,.21,5.91,8.46h-2.64l-4.59-6.63-.27-.33-5.67-8.04h2.73Zm10.26,0l-5.61,7.92-.21,.03-4.95,7.05h-2.52l6.18-8.52,.21-.03,4.38-6.45h2.52Zm9.19,15.3c-1.36,0-2.57-.31-3.63-.93-1.04-.62-1.86-1.51-2.46-2.67-.6-1.18-.9-2.58-.9-4.2s.29-3.01,.87-4.17c.6-1.18,1.41-2.08,2.43-2.7,1.04-.62,2.22-.93,3.54-.93s2.48,.3,3.42,.9c.94,.6,1.66,1.42,2.16,2.46s.75,2.22,.75,3.54c0,.32-.01,.6-.03,.84-.02,.24-.04,.45-.06,.63h-11.67v-1.92h10.71l-1.11,.24c0-1.02-.18-1.88-.54-2.58-.34-.72-.83-1.27-1.47-1.65-.62-.38-1.35-.57-2.19-.57-.96,0-1.8,.24-2.52,.72-.7,.48-1.24,1.16-1.62,2.04-.38,.88-.57,1.93-.57,3.15s.2,2.27,.6,3.15,.96,1.56,1.68,2.04c.74,.48,1.6,.72,2.58,.72,1.04,0,1.9-.22,2.58-.66,.7-.46,1.25-1.06,1.65-1.8l1.71,.99c-.36,.68-.83,1.28-1.41,1.8-.56,.5-1.22,.89-1.98,1.17-.76,.26-1.6,.39-2.52,.39Zm16.55-15.6c1,0,1.88,.17,2.64,.51,.78,.32,1.44,.78,1.98,1.38,.54,.58,.97,1.28,1.29,2.1l-2.04,.99c-.28-1-.75-1.76-1.41-2.28-.66-.54-1.5-.81-2.52-.81-.96,0-1.8,.24-2.52,.72-.7,.46-1.24,1.13-1.62,2.01-.38,.88-.57,1.94-.57,3.18s.19,2.28,.57,3.18c.4,.88,.95,1.56,1.65,2.04,.72,.46,1.56,.69,2.52,.69,.76,0,1.42-.12,1.98-.36,.56-.26,1.02-.63,1.38-1.11s.61-1.06,.75-1.74l1.98,.69c-.3,.92-.73,1.71-1.29,2.37-.56,.66-1.25,1.17-2.07,1.53-.8,.34-1.71,.51-2.73,.51-1.34,0-2.53-.31-3.57-.93s-1.86-1.51-2.46-2.67c-.58-1.18-.87-2.58-.87-4.2s.3-3.01,.9-4.17c.6-1.18,1.42-2.08,2.46-2.7s2.23-.93,3.57-.93Zm15.36,15.6c-.94,0-1.81-.18-2.61-.54-.8-.38-1.45-.97-1.95-1.77-.48-.8-.72-1.84-.72-3.12v-9.87h2.16v9.3c0,1.38,.29,2.41,.87,3.09,.58,.68,1.51,1.02,2.79,1.02,.58,0,1.13-.11,1.65-.33,.54-.22,1.01-.54,1.41-.96,.42-.44,.75-.98,.99-1.62,.24-.64,.36-1.38,.36-2.22v-8.28h2.16v15h-1.89l-.12-2.49c-.32,.62-.73,1.14-1.23,1.56-.48,.42-1.05,.73-1.71,.93-.64,.2-1.36,.3-2.16,.3Zm15.72-19.53v15.12c0,.8,.2,1.4,.6,1.8s.93,.6,1.59,.6c.56,0,1.03-.1,1.41-.3,.4-.2,.76-.47,1.08-.81l.72,1.8c-.44,.42-.95,.75-1.53,.99-.58,.22-1.24,.33-1.98,.33-1.12,0-2.08-.31-2.88-.93-.78-.62-1.17-1.65-1.17-3.09v-14.91l2.16-.6Zm5.16,4.23v1.86h-10.14v-1.86h10.14Zm5.6,0v15h-2.16v-15h2.16Zm-.93-2.88c-.54,0-.98-.16-1.32-.48-.32-.34-.48-.78-.48-1.32s.16-.97,.48-1.29c.34-.34,.78-.51,1.32-.51s.97,.17,1.29,.51c.34,.32,.51,.75,.51,1.29s-.17,.98-.51,1.32c-.32,.32-.75,.48-1.29,.48Zm12.36,2.58c1.36,0,2.56,.31,3.6,.93,1.04,.62,1.86,1.52,2.46,2.7,.6,1.16,.9,2.55,.9,4.17s-.3,3.02-.9,4.2c-.6,1.16-1.42,2.05-2.46,2.67-1.04,.62-2.24,.93-3.6,.93s-2.54-.31-3.6-.93c-1.04-.62-1.86-1.51-2.46-2.67-.6-1.18-.9-2.58-.9-4.2s.3-3.01,.9-4.17c.6-1.18,1.42-2.08,2.46-2.7,1.06-.62,2.26-.93,3.6-.93Zm0,1.86c-.98,0-1.83,.24-2.55,.72s-1.28,1.16-1.68,2.04c-.38,.88-.57,1.94-.57,3.18s.19,2.28,.57,3.18c.4,.88,.96,1.56,1.68,2.04s1.57,.72,2.55,.72,1.85-.24,2.55-.72c.72-.48,1.27-1.16,1.65-2.04,.4-.9,.6-1.96,.6-3.18s-.2-2.3-.6-3.18c-.38-.88-.93-1.56-1.65-2.04-.7-.48-1.55-.72-2.55-.72Zm11.43,13.44v-15h1.89l.18,3.45-.33-.3c.42-1.2,1.11-2.07,2.07-2.61,.96-.56,2.02-.84,3.18-.84,1.02,0,1.94,.21,2.76,.63,.84,.42,1.51,1.05,2.01,1.89,.5,.82,.75,1.87,.75,3.15v9.63h-2.16v-8.88c0-1.66-.35-2.83-1.05-3.51-.7-.68-1.57-1.02-2.61-1.02-.72,0-1.43,.18-2.13,.54-.7,.36-1.28,.93-1.74,1.71-.44,.78-.66,1.8-.66,3.06v8.1h-2.16Z"/>
  </g>
</svg>