<?xml version="1.0" encoding="UTF-8"?>
<svg id="Layer_2" data-name="Layer 2" xmlns="http://www.w3.org/2000/svg" viewBox="0 0 255.43 297.3">
  <defs>
    <style>
      .cls-1 {
        fill: #fff;
      }

      .cls-2 {
        fill: none;
        stroke: #44b993;
        stroke-miterlimit: 10;
        stroke-width: 2.97px;
      }

      .cls-3 {
        fill: #44b993;
      }

      .cls-4 {
        fill: #010101;
      }
    </style>
  </defs>
  <g id="Layer_1-2" data-name="Layer 1">
    <g>
      <g>
        <path class="cls-2" d="M209.68,105.58c0,57.49-46.61,104.1-104.1,104.1S1.48,163.07,1.48,105.58"/>
        <path class="cls-2" d="M15.45,53.46C33.46,22.39,67.08,1.48,105.58,1.48s72.12,20.9,90.13,51.98"/>
      </g>
      <polygon class="cls-3" points="255.43 104.55 248.05 100.63 248.05 103.06 208.2 103.06 208.2 106.03 248.05 106.03 248.05 108.47 255.43 104.55"/>
    </g>
    <rect class="cls-3" x="49.15" y="184.43" width="112.86" height="33.7" rx="16.85" ry="16.85"/>
    <path class="cls-1" d="M95.17,205.53c-.28,.21-.62,.36-1.03,.47-.41,.1-.84,.15-1.29,.15-1.17,0-2.07-.3-2.71-.89-.64-.59-.96-1.47-.96-2.63v-4.03h-1.51v-2.19h1.51v-2.39h2.84v2.39h2.44v2.19h-2.44v3.99c0,.41,.11,.73,.32,.96,.21,.23,.51,.34,.9,.34,.45,0,.83-.12,1.15-.37l.77,2.01Z"/>
    <path class="cls-1" d="M106.02,201.9h-7.42c.13,.61,.45,1.09,.95,1.44,.5,.35,1.12,.53,1.86,.53,.51,0,.96-.08,1.36-.23,.4-.15,.76-.39,1.1-.72l1.51,1.64c-.92,1.06-2.27,1.59-4.05,1.59-1.11,0-2.08-.21-2.94-.65-.85-.43-1.51-1.03-1.97-1.8s-.69-1.63-.69-2.61,.23-1.83,.68-2.6c.46-.77,1.08-1.37,1.88-1.8s1.69-.65,2.67-.65,1.83,.21,2.61,.62c.78,.41,1.39,1.01,1.83,1.78,.44,.77,.67,1.67,.67,2.69,0,.04-.02,.29-.05,.77Zm-6.66-3.15c-.44,.36-.71,.86-.8,1.5h4.83c-.1-.62-.37-1.12-.8-1.49s-.97-.56-1.6-.56-1.19,.18-1.62,.55Z"/>
    <path class="cls-4" d="M51.22,271.05v19.8h-2.07v-13.08l.24-4.77h-.03l-6.42,17.85h-1.86l-6.45-17.85h-.03l.24,4.77v13.08h-2.04v-19.8h3.3l4.59,12.81,1.29,4.44h.06l1.32-4.41,4.56-12.84h3.3Zm11.65,4.5c1.36,0,2.56,.31,3.6,.93,1.04,.62,1.86,1.52,2.46,2.7,.6,1.16,.9,2.55,.9,4.17s-.3,3.02-.9,4.2c-.6,1.16-1.42,2.05-2.46,2.67-1.04,.62-2.24,.93-3.6,.93s-2.54-.31-3.6-.93c-1.04-.62-1.86-1.51-2.46-2.67-.6-1.18-.9-2.58-.9-4.2s.3-3.01,.9-4.17c.6-1.18,1.42-2.08,2.46-2.7,1.06-.62,2.26-.93,3.6-.93Zm0,1.86c-.98,0-1.83,.24-2.55,.72-.72,.48-1.28,1.16-1.68,2.04-.38,.88-.57,1.94-.57,3.18s.19,2.28,.57,3.18c.4,.88,.96,1.56,1.68,2.04,.72,.48,1.57,.72,2.55,.72s1.85-.24,2.55-.72c.72-.48,1.27-1.16,1.65-2.04,.4-.9,.6-1.96,.6-3.18s-.2-2.3-.6-3.18c-.38-.88-.93-1.56-1.65-2.04-.7-.48-1.55-.72-2.55-.72Zm11.43,13.44v-15h1.89l.18,3.45-.33-.3c.42-1.2,1.11-2.07,2.07-2.61,.96-.56,2.02-.84,3.18-.84,1.02,0,1.94,.21,2.76,.63,.84,.42,1.51,1.05,2.01,1.89,.5,.82,.75,1.87,.75,3.15v9.63h-2.16v-8.88c0-1.66-.35-2.83-1.05-3.51-.7-.68-1.57-1.02-2.61-1.02-.72,0-1.43,.18-2.13,.54-.7,.36-1.28,.93-1.74,1.71-.44,.78-.66,1.8-.66,3.06v8.1h-2.16Zm20-15v15h-2.16v-15h2.16Zm-.93-2.88c-.54,0-.98-.16-1.32-.48-.32-.34-.48-.78-.48-1.32s.16-.97,.48-1.29c.34-.34,.78-.51,1.32-.51s.97,.17,1.29,.51c.34,.32,.51,.75,.51,1.29s-.17,.98-.51,1.32c-.32,.32-.75,.48-1.29,.48Zm9.54-1.35v15.12c0,.8,.2,1.4,.6,1.8s.93,.6,1.59,.6c.56,0,1.03-.1,1.41-.3,.4-.2,.76-.47,1.08-.81l.72,1.8c-.44,.42-.95,.75-1.53,.99-.58,.22-1.24,.33-1.98,.33-1.12,0-2.08-.31-2.88-.93-.78-.62-1.17-1.65-1.17-3.09v-14.91l2.16-.6Zm5.16,4.23v1.86h-10.14v-1.86h10.14Zm9.35-.3c1.36,0,2.56,.31,3.6,.93,1.04,.62,1.86,1.52,2.46,2.7,.6,1.16,.9,2.55,.9,4.17s-.3,3.02-.9,4.2c-.6,1.16-1.42,2.05-2.46,2.67-1.04,.62-2.24,.93-3.6,.93s-2.54-.31-3.6-.93c-1.04-.62-1.86-1.51-2.46-2.67-.6-1.18-.9-2.58-.9-4.2s.3-3.01,.9-4.17c.6-1.18,1.42-2.08,2.46-2.7,1.06-.62,2.26-.93,3.6-.93Zm0,1.86c-.98,0-1.83,.24-2.55,.72-.72,.48-1.28,1.16-1.68,2.04-.38,.88-.57,1.94-.57,3.18s.19,2.28,.57,3.18c.4,.88,.96,1.56,1.68,2.04,.72,.48,1.57,.72,2.55,.72s1.85-.24,2.55-.72c.72-.48,1.27-1.16,1.65-2.04,.4-.9,.6-1.96,.6-3.18s-.2-2.3-.6-3.18c-.38-.88-.93-1.56-1.65-2.04-.7-.48-1.55-.72-2.55-.72Zm11.43,13.44v-15h1.8l.27,2.64c.36-.94,.92-1.66,1.68-2.16,.76-.52,1.67-.78,2.73-.78,.28,0,.56,.03,.84,.09,.28,.04,.52,.13,.72,.27l-.36,1.95c-.2-.1-.43-.17-.69-.21-.24-.06-.58-.09-1.02-.09-.6,0-1.2,.2-1.8,.6-.58,.38-1.06,.95-1.44,1.71-.38,.76-.57,1.69-.57,2.79v8.19h-2.16Zm13.62-15v15h-2.16v-15h2.16Zm-.93-2.88c-.54,0-.98-.16-1.32-.48-.32-.34-.48-.78-.48-1.32s.16-.97,.48-1.29c.34-.34,.78-.51,1.32-.51s.97,.17,1.29,.51c.34,.32,.51,.75,.51,1.29s-.17,.98-.51,1.32c-.32,.32-.75,.48-1.29,.48Zm6.45,17.88v-15h1.89l.18,3.45-.33-.3c.42-1.2,1.11-2.07,2.07-2.61,.96-.56,2.02-.84,3.18-.84,1.02,0,1.94,.21,2.76,.63,.84,.42,1.51,1.05,2.01,1.89,.5,.82,.75,1.87,.75,3.15v9.63h-2.16v-8.88c0-1.66-.35-2.83-1.05-3.51s-1.57-1.02-2.61-1.02c-.72,0-1.43,.18-2.13,.54-.7,.36-1.28,.93-1.74,1.71-.44,.78-.66,1.8-.66,3.06v8.1h-2.16Zm29.9-17.76l.48,1.92h-.21c-.94,0-1.67,.21-2.19,.63-.5,.42-.75,1.07-.75,1.95l-1.29-.69c0-.78,.17-1.45,.51-2.01,.34-.58,.79-1.02,1.35-1.32,.58-.32,1.23-.48,1.95-.48h.15Zm-4.5,15.96c1.4,0,2.49,.33,3.27,.99,.78,.64,1.17,1.49,1.17,2.55,0,.96-.31,1.79-.93,2.49-.6,.7-1.43,1.24-2.49,1.62-1.04,.4-2.22,.6-3.54,.6-2.24,0-3.93-.4-5.07-1.2-1.12-.78-1.68-1.74-1.68-2.88,0-.8,.27-1.52,.81-2.16,.54-.62,1.4-.98,2.58-1.08l-.15,.42c-.66-.18-1.22-.49-1.68-.93-.46-.44-.69-1.06-.69-1.86s.28-1.44,.84-2.04c.58-.6,1.44-.96,2.58-1.08l1.56,.72h-.39c-.92,.08-1.6,.32-2.04,.72-.42,.38-.63,.83-.63,1.35,0,.58,.21,1.02,.63,1.32s.99,.45,1.71,.45h4.14Zm-2.49,6.48c1.1,0,2.02-.13,2.76-.39,.74-.24,1.3-.57,1.68-.99,.38-.4,.57-.84,.57-1.32,0-.6-.24-1.08-.72-1.44-.46-.34-1.23-.51-2.31-.51h-4.35c-.68,0-1.26,.18-1.74,.54-.48,.38-.72,.88-.72,1.5,0,.78,.43,1.41,1.29,1.89,.86,.48,2.04,.72,3.54,.72Zm-.21-19.98c1.16,0,2.18,.22,3.06,.66,.88,.42,1.57,1.01,2.07,1.77,.5,.74,.75,1.6,.75,2.58s-.26,1.85-.78,2.61c-.5,.76-1.19,1.36-2.07,1.8-.88,.42-1.89,.63-3.03,.63-1.88,0-3.34-.47-4.38-1.41-1.02-.94-1.53-2.15-1.53-3.63,0-.98,.25-1.84,.75-2.58,.5-.76,1.19-1.35,2.07-1.77,.9-.44,1.93-.66,3.09-.66Zm0,1.74c-1.06,0-1.95,.3-2.67,.9-.7,.6-1.05,1.39-1.05,2.37s.36,1.78,1.08,2.4c.72,.6,1.6,.9,2.64,.9s1.91-.3,2.61-.9c.72-.62,1.08-1.42,1.08-2.4s-.35-1.77-1.05-2.37c-.7-.6-1.58-.9-2.64-.9Z"/>
    <g>
      <path class="cls-3" d="M107.64,61.3c3.63,.66,6.71,2.34,9.21,5.04,2.55,2.75,4.22,6,5.23,9.61,.53,1.87,.8,3.79,.96,5.73,.08,.93-.04,1.05-.99,1.07-.75,.01-1.49,0-2.24,0-.31,0-.71-.1-.84,.33-.14,.45,.13,.7,.48,.94,1.75,1.25,2.09,3.32,.82,4.91-.26,.33-.56,.64-.95,.78-.67,.24-.96,.72-1.16,1.37-.78,2.54-2.15,4.73-4.14,6.5-.46,.41-.57,.79-.38,1.38,.38,1.16,.7,2.33,1.03,3.51,.13,.46,.34,.76,.82,.94,4.72,1.74,9.29,3.83,13.87,5.9,.4,.18,.8,.17,1.22,.17,4.14,0,8.28,0,12.43,0,1.08,0,1.11,.03,1.11,1.13,0,5.6,.01,11.2-.01,16.8,0,.8,.25,1.04,1.04,1.04,2.74-.01,4.48,1.5,4.69,4.21,.16,2.12,.2,4.27-.04,6.39-.27,2.38-2.01,3.86-4.39,3.92-.86,.02-1.29,.47-1.29,1.34,0,3.44-.02,6.87,.01,10.31,0,.78-.2,1.04-1.02,1.04-24.94-.02-49.87-.02-74.81-.02-.93,0-1.4-.47-1.4-1.42,0-3.41-.02-6.82,.01-10.23,0-.8-.26-1.04-1.05-1.04-2.91,0-4.66-1.81-4.66-4.75,0-1.77,0-3.55,0-5.32,.02-2.54,1.86-4.39,4.39-4.44,.86-.02,1.3-.46,1.3-1.34v-16.3c0-1.29,.01-1.31,1.29-1.31,4.09,0,8.17,0,12.26,0,.57,0,1.07-.13,1.59-.36,4.57-2.03,9.1-4.14,13.81-5.83,.63-.23,1-.57,1.16-1.24,.26-1.08,.59-2.14,.92-3.19,.15-.48,.08-.8-.32-1.16-2.09-1.84-3.51-4.11-4.3-6.78-.16-.55-.46-.88-.96-1.14-2.33-1.24-2.51-4.2-.36-5.74,.33-.24,.66-.45,.54-.92-.14-.54-.61-.38-.97-.39-.8-.02-1.6,0-2.4-.01-.45,0-.73-.16-.7-.69,.34-5.32,1.8-10.25,5.17-14.47,1.83-2.3,3.99-4.09,6.57-5.19,1.65-.7,3.16-.95,3.41-.99,1.64-.27,3.04-.21,4.04-.09h0Zm-2.18,92.57h35.36c.25,0,.5-.02,.75,0,.51,.04,.68-.21,.68-.7,0-3.16-.01-6.32,0-9.48,0-.54-.21-.74-.74-.73-.83,.02-1.66,.03-2.48,0-1.93-.1-3.01-1.83-2.25-3.59,.16-.37,.19-.65,0-1-.49-.9,.04-1.74,.11-2.62,.07-.82-.64-1.69-.16-2.62,.03-.05,.04-.11,.07-.15,.23-.31,.14-.59,0-.92-.78-1.8,.35-3.56,2.3-3.62,.72-.02,1.44-.05,2.15,0,.81,.07,1.03-.25,1.03-1.04-.03-4.88-.01-9.75-.01-14.63,0-.28,0-.55,0-.83,0-.37-.17-.57-.55-.57-.28,0-.55,0-.83,0H70.14c-.22,0-.44,.01-.66,0-.54-.04-.72,.21-.72,.74,.01,5.21,.01,10.42,0,15.63,0,.56,.25,.72,.75,.71,.83-.02,1.66-.03,2.48,0,1.92,.07,3.04,1.79,2.29,3.56-.17,.4-.18,.7,.02,1.08,.48,.91-.14,1.78-.12,2.62,.01,.86,.59,1.72,.11,2.63-.18,.35-.19,.63-.03,1.01,.77,1.81-.33,3.54-2.3,3.61-.77,.03-1.55,.04-2.32,0-.7-.04-.9,.24-.89,.91,.03,2.94,.01,5.87,.01,8.81,0,.79,.39,1.18,1.18,1.18h35.53Zm.25-72.99h14.33c.99,0,1.1-.08,.97-1.03-.75-5.3-2.76-9.97-6.86-13.54-2.47-2.15-5.36-3.32-8.65-3.23-4.29,.12-7.63,2.19-10.29,5.43-2.65,3.23-4.07,7-4.67,11.11-.17,1.18-.14,1.25,1.01,1.25h14.16Zm0,1.87c-1.49,0-2.98,.02-4.47,0-.65-.01-.88,.24-.86,.88,.04,.89,0,1.77,.01,2.66,.01,.55-.18,.81-.76,.82-1.8,.04-3.6,.15-5.12-1.09-.15-.12-.34-.18-.51-.27-.37-.22-.74-.4-1.13-.02-.4,.39-.67,.83-.52,1.4,.19,.71,.66,1.2,1.39,1.22,.68,.02,.89,.36,1.01,.95,.44,2.07,1.28,3.95,2.63,5.58,2.64,3.16,5.99,4.77,10.1,4,4.88-.91,7.66-4.2,9.06-8.8,.28-.9,.33-1.89,1.63-1.82,.1,0,.2-.08,.3-.14,.7-.44,.91-1.32,.48-2.04-.4-.67-.76-.72-1.68-.22-.58,.32-1.16,.64-1.74,.96-.29,.17-.59,.29-.94,.29-.91,0-1.82-.02-2.73,0-.57,.01-.79-.25-.78-.8,.02-.75,0-1.5,0-2.24,0-.87-.45-1.3-1.34-1.31h-4.06Zm0,24.92c.48-.05,1.11-.09,1.74-.18,2.14-.32,4.01-1.16,5.39-2.92,.26-.33,.36-.65,.23-1.07-.36-1.19-.71-2.39-1.04-3.58-.14-.5-.33-.6-.82-.36-3.62,1.83-7.26,1.81-10.89,0-.5-.25-.66-.12-.8,.38-.34,1.25-.69,2.51-1.1,3.74-.22,.67-.07,1.13,.43,1.62,1.88,1.82,4.23,2.25,6.85,2.37h0Zm36.76,33.43h0c.97,0,1.93,0,2.9,0,.05,0,.11,0,.17,0,1.37-.05,2.44-1.03,2.48-2.41,.05-1.99,.05-3.99,0-5.98-.03-1.19-.9-2.27-2-2.31-2.32-.09-4.64-.05-6.96-.05-.4,0-.71,.21-.68,.66,.02,.4,.31,.57,.68,.59,.39,.02,.78,.04,1.16,0,.72-.07,.96,.23,.96,.96,0,.77-.32,.98-1,.93-.36-.03-.72,0-1.08,0-.4,.02-.73,.17-.73,.62,0,.45,.31,.62,.71,.64,.47,.02,.94,.02,1.41,.02,.65,0,.67,.42,.66,.9,0,.49,.03,.98-.68,.97-.41,0-.83,0-1.24,0-.45,0-.87,.1-.86,.66,.01,.5,.41,.61,.82,.61,.39,0,.77,.02,1.16,0,.54-.02,.8,.18,.8,.77,0,1-.05,1.09-1.05,1.11-.3,0-.61,0-.91,0-.42,0-.81,.11-.83,.61-.01,.56,.41,.66,.86,.67,1.08,0,2.15,0,3.23,0h0Zm-73.89-10.77h0c-.5,0-.99,0-1.49,0-.52,0-1.05-.01-1.57,0-1.44,.05-2.41,.95-2.44,2.38-.04,1.99-.04,3.99,0,5.98,.03,1.43,1,2.37,2.42,2.4,1.18,.03,2.37,0,3.56,0,.94,0,1.88,0,2.81-.01,.39,0,.73-.15,.75-.6,.02-.51-.34-.65-.77-.67-.36-.01-.72-.04-1.08,0-.74,.07-.95-.28-.95-.98,0-.69,.27-.96,.93-.91,.33,.03,.66,0,.99,0,.45,0,.87-.1,.86-.66-.01-.56-.46-.61-.9-.62-.41,0-.83,0-1.24-.01-.66,0-.63-.48-.63-.93s-.02-.93,.64-.93c.39,0,.77,0,1.16,0,.46,0,.95-.02,.98-.63,.03-.64-.48-.64-.93-.65-.39-.01-.77-.01-1.16,0-.49,0-.67-.24-.69-.72-.05-1.01,.06-1.14,1.09-1.15,.25,0,.5,0,.74,0,.46,0,.96-.04,.94-.65-.01-.62-.53-.62-.97-.63-1.02,0-2.04,0-3.06,0h0Zm36.16-20.83c-2.7-.19-5.32-.82-7.08-2.92-1.21-1.43-2.22-1.38-3.57-.62-.02,.01-.05,.02-.08,.03-.48,.14-.58,.36-.18,.73,.85,.79,1.68,1.59,2.52,2.39,.27,.26,.58,.39,.96,.39,2.48,0,4.95,0,7.43,0h0Zm1.48,0c2.55,0,5.1,0,7.65,0,.33,0,.58-.14,.81-.36,.87-.84,1.75-1.68,2.64-2.51,.31-.29,.25-.43-.12-.57-.62-.23-1.24-.46-1.85-.73-.45-.2-.76-.14-1.05,.28-.38,.58-.88,1.06-1.42,1.5-1.95,1.57-4.21,2.23-6.67,2.38h0Zm10.75,0h4.92c.51,0,.6-.41,.71-.78,.11-.37-.2-.47-.44-.58-.7-.31-1.41-.61-2.11-.92-.28-.12-.52-.14-.76,.08-.71,.68-1.43,1.36-2.31,2.2h0Zm-23.17,0c.02-.36-.21-.46-.36-.6-1.31-1.31-2.8-1.57-4.48-.79-.25,.12-.64,.15-.53,.59,.1,.38,.21,.78,.7,.79,1.55,.01,3.11,0,4.66,0h0Zm21.22-26.74c-2.21,.04-2.05-.42-2.04,1.83,0,.46,.22,.6,.65,.64,1.31,.14,2.22-.72,3.23-1.29,.29-.17,.22-.55,.16-.84-.07-.31-.34-.33-.59-.33-.47,0-.94,0-1.41,0h0Zm-18.55,0c-.44,0-.88,0-1.32,0-.3,0-.64-.01-.7,.41-.05,.34-.04,.68,.31,.87,.65,.37,1.27,.79,1.96,1.07,1.24,.51,1.81,.11,1.8-1.18,0-1.16-.01-1.17-1.14-1.17h-.91Z"/>
      <path class="cls-3" d="M98.24,144.66c-.97,0-1.65,.58-2.29,1.2-.43,.41-.74,.44-1.16-.02-.81-.87-1.66-1.71-2.51-2.53-.38-.36-.41-.67-.05-1.05,.25-.26,.47-.54,.7-.82,.64-.81,.77-1.68,.39-2.65-.43-1.09-.79-2.23-2.14-2.52-.4-.08-.82-.11-1.23-.14-.62-.04-.94-.28-.91-.98,.05-1.13,.03-2.27,0-3.41,0-.55,.19-.8,.76-.83,.6-.04,1.22-.05,1.79-.3,1.83-.78,2.53-3.71,1.26-5.23-1.17-1.4-1.04-1.01,.08-2.19,.65-.68,1.34-1.32,1.98-2.01,.37-.4,.68-.49,1.09-.06,.28,.3,.62,.55,.96,.79,.72,.52,1.5,.68,2.35,.33,.54-.22,1.1-.39,1.59-.68,.99-.59,1.21-1.61,1.22-2.66,0-.71,.25-1,.97-.96,1.1,.05,2.21,.04,3.31,0,.7-.03,.94,.27,.94,.92,0,.39,.06,.77,.09,1.16,.17,1.83,3.84,3.22,5.26,1.86,1.21-1.16,1.31-1.06,2.53,.16,.49,.49,.98,.98,1.46,1.47,.56,.56,.57,1.15,.03,1.78-.4,.46-.79,.93-.9,1.56-.33,1.88,1.11,3.89,2.97,4.15,.22,.03,.44,.09,.66,.08,.61-.02,.82,.28,.81,.86-.02,1.14-.03,2.27,0,3.41,.02,.58-.2,.89-.79,.92-.3,.02-.61,.05-.91,.07-.42,.02-.82,.14-1.18,.35-1.64,.96-2.12,3.69-.92,5.15,.16,.19,.32,.38,.49,.56,.34,.34,.35,.64-.01,.99-.89,.87-1.77,1.75-2.63,2.65-.38,.4-.68,.34-1.05,0-.51-.46-1-.97-1.69-1.16-2.02-.56-4.29,1.09-4.39,3.18-.06,1.2-.08,1.23-1.32,1.23-.88,0-1.77,0-2.65,0-1.18,0-1.21,0-1.25-1.18-.07-2.33-1.52-3.02-3.73-3.43h0Zm16.64-20.14c-.16-.41-.49-.66-.79-.94-.31-.3-.57-.07-.81,.11-2.34,1.74-7.25-.31-7.63-3.26-.08-.58-.38-.7-.89-.71-.54,0-.9,.09-.98,.71-.39,2.92-5.48,4.98-7.75,3.1-.39-.32-.68-.25-.98,.12-.28,.34-.79,.57-.34,1.16,1.85,2.41-.27,7.41-3.14,7.77-.5,.06-.68,.38-.66,.88,.02,.47,.02,.9,.62,.99,2.96,.43,4.99,5.6,3.05,7.86-.16,.19-.26,.39-.07,.67,.5,.72,.88,.83,1.65,.42,.27-.14,.55-.26,.84-.35,2.61-.8,5.87,1,6.6,3.67,.16,.59,.45,.72,.99,.71,.5-.01,.82-.07,.9-.68,.42-2.91,5.42-4.98,7.75-3.08,.47,.38,.73,.12,1.04-.2,.31-.32,.69-.56,.28-1.1-.45-.61-.67-1.32-.69-2.1-.09-2.74,1.33-4.76,4.01-5.68,.45-.15,.51-.45,.49-.83-.01-.37,.1-.82-.43-.95-2.04-.46-3.06-1.89-3.71-3.76-.47-1.38-.42-2.66,.3-3.92,.11-.19,.21-.38,.34-.6h0Z"/>
      <path class="cls-3" d="M111.01,133.58c0,3.6-2.82,6.42-6.4,6.42-3.49,0-6.41-2.91-6.41-6.39,0-3.52,2.92-6.48,6.42-6.49,3.54-.01,6.4,2.88,6.39,6.46Zm-6.4,4.54c2.55,0,4.58-1.97,4.63-4.52,.04-2.49-2.04-4.59-4.57-4.6-2.55,0-4.6,2.01-4.6,4.54,0,2.58,1.97,4.57,4.55,4.58h0Z"/>
    </g>
  </g>
</svg>